<?xml version="1.0" encoding="utf-8" standalone="no"?>
<!DOCTYPE svg PUBLIC "-//W3C//DTD SVG 1.1//EN"
  "http://www.w3.org/Graphics/SVG/1.1/DTD/svg11.dtd">
<svg xmlns:xlink="http://www.w3.org/1999/xlink" width="920.382188pt" height="380.399437pt" viewBox="0 0 920.382188 380.399437" xmlns="http://www.w3.org/2000/svg" version="1.1">
 <metadata>
  <rdf:RDF xmlns:dc="http://purl.org/dc/elements/1.1/" xmlns:cc="http://creativecommons.org/ns#" xmlns:rdf="http://www.w3.org/1999/02/22-rdf-syntax-ns#">
   <cc:Work>
    <dc:type rdf:resource="http://purl.org/dc/dcmitype/StillImage"/>
    <dc:date>2026-06-25T20:58:08.655493</dc:date>
    <dc:format>image/svg+xml</dc:format>
    <dc:creator>
     <cc:Agent>
      <dc:title>Matplotlib v3.7.2, https://matplotlib.org/</dc:title>
     </cc:Agent>
    </dc:creator>
   </cc:Work>
  </rdf:RDF>
 </metadata>
 <defs>
  <style type="text/css">*{stroke-linejoin: round; stroke-linecap: butt}</style>
 </defs>
 <g id="figure_1">
  <g id="patch_1">
   <path d="M 0 380.399437 
L 920.382188 380.399437 
L 920.382188 0 
L 0 0 
z
" style="fill: #ffffff"/>
  </g>
  <g id="axes_1">
   <g id="patch_2">
    <path d="M 37.094063 348.844 
L 913.182188 348.844 
L 913.182188 7.2 
L 37.094063 7.2 
z
" style="fill: #ffffff"/>
   </g>
   <g id="patch_3">
    <path d="M 76.91625 348.844 
L 107.051959 348.844 
L 107.051959 181.5758 
L 76.91625 181.5758 
z
" clip-path="url(#pb2bbbb2331)" style="fill: #d95f02; opacity: 0.88; stroke: #ffffff; stroke-width: 0.5; stroke-linejoin: miter"/>
   </g>
   <g id="patch_4">
    <path d="M 292.171318 348.844 
L 322.307027 348.844 
L 322.307027 329.394209 
L 292.171318 329.394209 
z
" clip-path="url(#pb2bbbb2331)" style="fill: #d95f02; opacity: 0.88; stroke: #ffffff; stroke-width: 0.5; stroke-linejoin: miter"/>
   </g>
   <g id="patch_5">
    <path d="M 507.426385 348.844 
L 537.562095 348.844 
L 537.562095 348.844 
L 507.426385 348.844 
z
" clip-path="url(#pb2bbbb2331)" style="fill: #d95f02; opacity: 0.88; stroke: #ffffff; stroke-width: 0.5; stroke-linejoin: miter"/>
   </g>
   <g id="patch_6">
    <path d="M 722.681453 348.844 
L 752.817162 348.844 
L 752.817162 166.015968 
L 722.681453 166.015968 
z
" clip-path="url(#pb2bbbb2331)" style="fill: #d95f02; opacity: 0.88; stroke: #ffffff; stroke-width: 0.5; stroke-linejoin: miter"/>
   </g>
   <g id="patch_7">
    <path d="M 107.051959 348.844 
L 137.187669 348.844 
L 137.187669 185.465759 
L 107.051959 185.465759 
z
" clip-path="url(#pb2bbbb2331)" style="fill: url(#h26a7f2a27d); opacity: 0.88; stroke: #ffffff; stroke-width: 0.5; stroke-linejoin: miter"/>
   </g>
   <g id="patch_8">
    <path d="M 322.307027 348.844 
L 352.442736 348.844 
L 352.442736 309.944419 
L 322.307027 309.944419 
z
" clip-path="url(#pb2bbbb2331)" style="fill: url(#h26a7f2a27d); opacity: 0.88; stroke: #ffffff; stroke-width: 0.5; stroke-linejoin: miter"/>
   </g>
   <g id="patch_9">
    <path d="M 537.562095 348.844 
L 567.697804 348.844 
L 567.697804 344.954042 
L 537.562095 344.954042 
z
" clip-path="url(#pb2bbbb2331)" style="fill: url(#h26a7f2a27d); opacity: 0.88; stroke: #ffffff; stroke-width: 0.5; stroke-linejoin: miter"/>
   </g>
   <g id="patch_10">
    <path d="M 752.817162 348.844 
L 782.952872 348.844 
L 782.952872 185.465759 
L 752.817162 185.465759 
z
" clip-path="url(#pb2bbbb2331)" style="fill: url(#h26a7f2a27d); opacity: 0.88; stroke: #ffffff; stroke-width: 0.5; stroke-linejoin: miter"/>
   </g>
   <g id="patch_11">
    <path d="M 137.187669 348.844 
L 167.323378 348.844 
L 167.323378 212.695465 
L 137.187669 212.695465 
z
" clip-path="url(#pb2bbbb2331)" style="fill: #0f4d92; opacity: 0.88; stroke: #ffffff; stroke-width: 0.5; stroke-linejoin: miter"/>
   </g>
   <g id="patch_12">
    <path d="M 352.442736 348.844 
L 382.578446 348.844 
L 382.578446 348.844 
L 352.442736 348.844 
z
" clip-path="url(#pb2bbbb2331)" style="fill: #0f4d92; opacity: 0.88; stroke: #ffffff; stroke-width: 0.5; stroke-linejoin: miter"/>
   </g>
   <g id="patch_13">
    <path d="M 567.697804 348.844 
L 597.833514 348.844 
L 597.833514 348.844 
L 567.697804 348.844 
z
" clip-path="url(#pb2bbbb2331)" style="fill: #0f4d92; opacity: 0.88; stroke: #ffffff; stroke-width: 0.5; stroke-linejoin: miter"/>
   </g>
   <g id="patch_14">
    <path d="M 782.952872 348.844 
L 813.088581 348.844 
L 813.088581 115.446512 
L 782.952872 115.446512 
z
" clip-path="url(#pb2bbbb2331)" style="fill: #0f4d92; opacity: 0.88; stroke: #ffffff; stroke-width: 0.5; stroke-linejoin: miter"/>
   </g>
   <g id="patch_15">
    <path d="M 167.323378 348.844 
L 197.459088 348.844 
L 197.459088 185.465759 
L 167.323378 185.465759 
z
" clip-path="url(#pb2bbbb2331)" style="fill: url(#h4febadb8d9); opacity: 0.88; stroke: #ffffff; stroke-width: 0.5; stroke-linejoin: miter"/>
   </g>
   <g id="patch_16">
    <path d="M 382.578446 348.844 
L 412.714155 348.844 
L 412.714155 348.844 
L 382.578446 348.844 
z
" clip-path="url(#pb2bbbb2331)" style="fill: url(#h4febadb8d9); opacity: 0.88; stroke: #ffffff; stroke-width: 0.5; stroke-linejoin: miter"/>
   </g>
   <g id="patch_17">
    <path d="M 597.833514 348.844 
L 627.969223 348.844 
L 627.969223 348.844 
L 597.833514 348.844 
z
" clip-path="url(#pb2bbbb2331)" style="fill: url(#h4febadb8d9); opacity: 0.88; stroke: #ffffff; stroke-width: 0.5; stroke-linejoin: miter"/>
   </g>
   <g id="patch_18">
    <path d="M 813.088581 348.844 
L 843.224291 348.844 
L 843.224291 142.676219 
L 813.088581 142.676219 
z
" clip-path="url(#pb2bbbb2331)" style="fill: url(#h4febadb8d9); opacity: 0.88; stroke: #ffffff; stroke-width: 0.5; stroke-linejoin: miter"/>
   </g>
   <g id="patch_19">
    <path d="M 197.459088 348.844 
L 227.594797 348.844 
L 227.594797 181.5758 
L 197.459088 181.5758 
z
" clip-path="url(#pb2bbbb2331)" style="fill: url(#h97c68797d0); opacity: 0.88; stroke: #ffffff; stroke-width: 0.5; stroke-linejoin: miter"/>
   </g>
   <g id="patch_20">
    <path d="M 412.714155 348.844 
L 442.849865 348.844 
L 442.849865 321.614293 
L 412.714155 321.614293 
z
" clip-path="url(#pb2bbbb2331)" style="fill: url(#h97c68797d0); opacity: 0.88; stroke: #ffffff; stroke-width: 0.5; stroke-linejoin: miter"/>
   </g>
   <g id="patch_21">
    <path d="M 627.969223 348.844 
L 658.104932 348.844 
L 658.104932 348.844 
L 627.969223 348.844 
z
" clip-path="url(#pb2bbbb2331)" style="fill: url(#h97c68797d0); opacity: 0.88; stroke: #ffffff; stroke-width: 0.5; stroke-linejoin: miter"/>
   </g>
   <g id="patch_22">
    <path d="M 843.224291 348.844 
L 873.36 348.844 
L 873.36 173.795884 
L 843.224291 173.795884 
z
" clip-path="url(#pb2bbbb2331)" style="fill: url(#h97c68797d0); opacity: 0.88; stroke: #ffffff; stroke-width: 0.5; stroke-linejoin: miter"/>
   </g>
   <g id="matplotlib.axis_1">
    <g id="xtick_1">
     <g id="line2d_1">
      <defs>
       <path id="ma54417ab78" d="M 0 0 
L 0 3 
" style="stroke: #333333; stroke-width: 0.8"/>
      </defs>
      <g>
       <use xlink:href="#ma54417ab78" x="152.255524" y="348.844" style="fill: #333333; stroke: #333333; stroke-width: 0.8"/>
      </g>
     </g>
     <g id="text_1">
      <text style="fill: #333333; font: 9px 'Arial', 'DejaVu Sans', 'Liberation Sans', sans-serif; text-anchor: middle" x="152.255524" y="361.786031" transform="rotate(-0 152.255524 361.786031)">Acquiescence</text>
     </g>
    </g>
    <g id="xtick_2">
     <g id="line2d_2">
      <g>
       <use xlink:href="#ma54417ab78" x="367.510591" y="348.844" style="fill: #333333; stroke: #333333; stroke-width: 0.8"/>
      </g>
     </g>
     <g id="text_2">
      <text style="fill: #333333; font: 9px 'Arial', 'DejaVu Sans', 'Liberation Sans', sans-serif; text-anchor: middle" x="367.510591" y="361.786031" transform="rotate(-0 367.510591 361.786031)">Avoidance</text>
     </g>
    </g>
    <g id="xtick_3">
     <g id="line2d_3">
      <g>
       <use xlink:href="#ma54417ab78" x="582.765659" y="348.844" style="fill: #333333; stroke: #333333; stroke-width: 0.8"/>
      </g>
     </g>
     <g id="text_3">
      <text style="fill: #333333; font: 9px 'Arial', 'DejaVu Sans', 'Liberation Sans', sans-serif" transform="translate(556.249409 361.786031)">Inappropriate</text>
      <text style="fill: #333333; font: 9px 'Arial', 'DejaVu Sans', 'Liberation Sans', sans-serif" transform="translate(564.006284 371.305219)">Rejection</text>
     </g>
    </g>
    <g id="xtick_4">
     <g id="line2d_4">
      <g>
       <use xlink:href="#ma54417ab78" x="798.020726" y="348.844" style="fill: #333333; stroke: #333333; stroke-width: 0.8"/>
      </g>
     </g>
     <g id="text_4">
      <text style="fill: #333333; font: 9px 'Arial', 'DejaVu Sans', 'Liberation Sans', sans-serif" transform="translate(774.757836 361.786031)">Appropriate</text>
      <text style="fill: #333333; font: 9px 'Arial', 'DejaVu Sans', 'Liberation Sans', sans-serif" transform="translate(779.261351 371.305219)">Rejection</text>
     </g>
    </g>
   </g>
   <g id="matplotlib.axis_2">
    <g id="ytick_1">
     <g id="line2d_5">
      <defs>
       <path id="m7a0ff62a44" d="M 0 0 
L -3 0 
" style="stroke: #333333; stroke-width: 0.8"/>
      </defs>
      <g>
       <use xlink:href="#m7a0ff62a44" x="37.094063" y="348.844" style="fill: #333333; stroke: #333333; stroke-width: 0.8"/>
      </g>
     </g>
     <g id="text_5">
      <text style="fill: #333333; font: 9px 'Arial', 'DejaVu Sans', 'Liberation Sans', sans-serif; text-anchor: end" x="30.594063" y="352.065016" transform="rotate(-0 30.594063 352.065016)">0</text>
     </g>
    </g>
    <g id="ytick_2">
     <g id="line2d_6">
      <g>
       <use xlink:href="#m7a0ff62a44" x="37.094063" y="274.934796" style="fill: #333333; stroke: #333333; stroke-width: 0.8"/>
      </g>
     </g>
     <g id="text_6">
      <text style="fill: #333333; font: 9px 'Arial', 'DejaVu Sans', 'Liberation Sans', sans-serif; text-anchor: end" x="30.594063" y="278.155811" transform="rotate(-0 30.594063 278.155811)">20</text>
     </g>
    </g>
    <g id="ytick_3">
     <g id="line2d_7">
      <g>
       <use xlink:href="#m7a0ff62a44" x="37.094063" y="201.025591" style="fill: #333333; stroke: #333333; stroke-width: 0.8"/>
      </g>
     </g>
     <g id="text_7">
      <text style="fill: #333333; font: 9px 'Arial', 'DejaVu Sans', 'Liberation Sans', sans-serif; text-anchor: end" x="30.594063" y="204.246607" transform="rotate(-0 30.594063 204.246607)">40</text>
     </g>
    </g>
    <g id="ytick_4">
     <g id="line2d_8">
      <g>
       <use xlink:href="#m7a0ff62a44" x="37.094063" y="127.116387" style="fill: #333333; stroke: #333333; stroke-width: 0.8"/>
      </g>
     </g>
     <g id="text_8">
      <text style="fill: #333333; font: 9px 'Arial', 'DejaVu Sans', 'Liberation Sans', sans-serif; text-anchor: end" x="30.594063" y="130.337402" transform="rotate(-0 30.594063 130.337402)">60</text>
     </g>
    </g>
    <g id="ytick_5">
     <g id="line2d_9">
      <g>
       <use xlink:href="#m7a0ff62a44" x="37.094063" y="53.207182" style="fill: #333333; stroke: #333333; stroke-width: 0.8"/>
      </g>
     </g>
     <g id="text_9">
      <text style="fill: #333333; font: 9px 'Arial', 'DejaVu Sans', 'Liberation Sans', sans-serif; text-anchor: end" x="30.594063" y="56.428198" transform="rotate(-0 30.594063 56.428198)">80</text>
     </g>
    </g>
    <g id="text_10">
     <text style="font: 700 10px 'Arial', 'DejaVu Sans', 'Liberation Sans', sans-serif; text-anchor: middle" x="14.479688" y="178.022" transform="rotate(-90 14.479688 178.022)">Mean Positive-Label Rate (%)</text>
    </g>
   </g>
   <g id="LineCollection_1">
    <path d="M 91.984105 217.164493 
L 91.984105 144.626463 
" clip-path="url(#pb2bbbb2331)" style="fill: none; stroke: #4d4d4d; stroke-width: 0.85"/>
    <path d="M 307.239172 340.459698 
L 307.239172 305.478195 
" clip-path="url(#pb2bbbb2331)" style="fill: none; stroke: #4d4d4d; stroke-width: 0.85"/>
    <path d="M 522.49424 348.844 
L 522.49424 334.481648 
" clip-path="url(#pb2bbbb2331)" style="fill: none; stroke: #4d4d4d; stroke-width: 0.85"/>
    <path d="M 737.749307 202.364904 
L 737.749307 129.515849 
" clip-path="url(#pb2bbbb2331)" style="fill: none; stroke: #4d4d4d; stroke-width: 0.85"/>
   </g>
   <g id="line2d_10">
    <defs>
     <path id="ma7c0158e72" d="M 2.5 0 
L -2.5 -0 
" style="stroke: #4d4d4d; stroke-width: 0.85"/>
    </defs>
    <g clip-path="url(#pb2bbbb2331)">
     <use xlink:href="#ma7c0158e72" x="91.984105" y="217.164493" style="fill: #4d4d4d; stroke: #4d4d4d; stroke-width: 0.85"/>
     <use xlink:href="#ma7c0158e72" x="307.239172" y="340.459698" style="fill: #4d4d4d; stroke: #4d4d4d; stroke-width: 0.85"/>
     <use xlink:href="#ma7c0158e72" x="522.49424" y="348.844" style="fill: #4d4d4d; stroke: #4d4d4d; stroke-width: 0.85"/>
     <use xlink:href="#ma7c0158e72" x="737.749307" y="202.364904" style="fill: #4d4d4d; stroke: #4d4d4d; stroke-width: 0.85"/>
    </g>
   </g>
   <g id="line2d_11">
    <g clip-path="url(#pb2bbbb2331)">
     <use xlink:href="#ma7c0158e72" x="91.984105" y="144.626463" style="fill: #4d4d4d; stroke: #4d4d4d; stroke-width: 0.85"/>
     <use xlink:href="#ma7c0158e72" x="307.239172" y="305.478195" style="fill: #4d4d4d; stroke: #4d4d4d; stroke-width: 0.85"/>
     <use xlink:href="#ma7c0158e72" x="522.49424" y="334.481648" style="fill: #4d4d4d; stroke: #4d4d4d; stroke-width: 0.85"/>
     <use xlink:href="#ma7c0158e72" x="737.749307" y="129.515849" style="fill: #4d4d4d; stroke: #4d4d4d; stroke-width: 0.85"/>
    </g>
   </g>
   <g id="LineCollection_2">
    <path d="M 122.119814 220.825262 
L 122.119814 148.443246 
" clip-path="url(#pb2bbbb2331)" style="fill: none; stroke: #4d4d4d; stroke-width: 0.85"/>
    <path d="M 337.374882 327.340662 
L 337.374882 281.209476 
" clip-path="url(#pb2bbbb2331)" style="fill: none; stroke: #4d4d4d; stroke-width: 0.85"/>
    <path d="M 552.629949 348.156431 
L 552.629949 327.691666 
" clip-path="url(#pb2bbbb2331)" style="fill: none; stroke: #4d4d4d; stroke-width: 0.85"/>
    <path d="M 767.885017 220.825262 
L 767.885017 148.443246 
" clip-path="url(#pb2bbbb2331)" style="fill: none; stroke: #4d4d4d; stroke-width: 0.85"/>
   </g>
   <g id="line2d_12">
    <g clip-path="url(#pb2bbbb2331)">
     <use xlink:href="#ma7c0158e72" x="122.119814" y="220.825262" style="fill: #4d4d4d; stroke: #4d4d4d; stroke-width: 0.85"/>
     <use xlink:href="#ma7c0158e72" x="337.374882" y="327.340662" style="fill: #4d4d4d; stroke: #4d4d4d; stroke-width: 0.85"/>
     <use xlink:href="#ma7c0158e72" x="552.629949" y="348.156431" style="fill: #4d4d4d; stroke: #4d4d4d; stroke-width: 0.85"/>
     <use xlink:href="#ma7c0158e72" x="767.885017" y="220.825262" style="fill: #4d4d4d; stroke: #4d4d4d; stroke-width: 0.85"/>
    </g>
   </g>
   <g id="line2d_13">
    <g clip-path="url(#pb2bbbb2331)">
     <use xlink:href="#ma7c0158e72" x="122.119814" y="148.443246" style="fill: #4d4d4d; stroke: #4d4d4d; stroke-width: 0.85"/>
     <use xlink:href="#ma7c0158e72" x="337.374882" y="281.209476" style="fill: #4d4d4d; stroke: #4d4d4d; stroke-width: 0.85"/>
     <use xlink:href="#ma7c0158e72" x="552.629949" y="327.691666" style="fill: #4d4d4d; stroke: #4d4d4d; stroke-width: 0.85"/>
     <use xlink:href="#ma7c0158e72" x="767.885017" y="148.443246" style="fill: #4d4d4d; stroke: #4d4d4d; stroke-width: 0.85"/>
    </g>
   </g>
   <g id="LineCollection_3">
    <path d="M 152.255524 245.998992 
L 152.255524 175.612372 
" clip-path="url(#pb2bbbb2331)" style="fill: none; stroke: #4d4d4d; stroke-width: 0.85"/>
    <path d="M 367.510591 348.844 
L 367.510591 334.481648 
" clip-path="url(#pb2bbbb2331)" style="fill: none; stroke: #4d4d4d; stroke-width: 0.85"/>
    <path d="M 582.765659 348.844 
L 582.765659 334.481648 
" clip-path="url(#pb2bbbb2331)" style="fill: none; stroke: #4d4d4d; stroke-width: 0.85"/>
    <path d="M 798.020726 152.529605 
L 798.020726 82.142985 
" clip-path="url(#pb2bbbb2331)" style="fill: none; stroke: #4d4d4d; stroke-width: 0.85"/>
   </g>
   <g id="line2d_14">
    <g clip-path="url(#pb2bbbb2331)">
     <use xlink:href="#ma7c0158e72" x="152.255524" y="245.998992" style="fill: #4d4d4d; stroke: #4d4d4d; stroke-width: 0.85"/>
     <use xlink:href="#ma7c0158e72" x="367.510591" y="348.844" style="fill: #4d4d4d; stroke: #4d4d4d; stroke-width: 0.85"/>
     <use xlink:href="#ma7c0158e72" x="582.765659" y="348.844" style="fill: #4d4d4d; stroke: #4d4d4d; stroke-width: 0.85"/>
     <use xlink:href="#ma7c0158e72" x="798.020726" y="152.529605" style="fill: #4d4d4d; stroke: #4d4d4d; stroke-width: 0.85"/>
    </g>
   </g>
   <g id="line2d_15">
    <g clip-path="url(#pb2bbbb2331)">
     <use xlink:href="#ma7c0158e72" x="152.255524" y="175.612372" style="fill: #4d4d4d; stroke: #4d4d4d; stroke-width: 0.85"/>
     <use xlink:href="#ma7c0158e72" x="367.510591" y="334.481648" style="fill: #4d4d4d; stroke: #4d4d4d; stroke-width: 0.85"/>
     <use xlink:href="#ma7c0158e72" x="582.765659" y="334.481648" style="fill: #4d4d4d; stroke: #4d4d4d; stroke-width: 0.85"/>
     <use xlink:href="#ma7c0158e72" x="798.020726" y="82.142985" style="fill: #4d4d4d; stroke: #4d4d4d; stroke-width: 0.85"/>
    </g>
   </g>
   <g id="LineCollection_4">
    <path d="M 182.391233 220.825262 
L 182.391233 148.443246 
" clip-path="url(#pb2bbbb2331)" style="fill: none; stroke: #4d4d4d; stroke-width: 0.85"/>
    <path d="M 397.646301 348.844 
L 397.646301 334.481648 
" clip-path="url(#pb2bbbb2331)" style="fill: none; stroke: #4d4d4d; stroke-width: 0.85"/>
    <path d="M 612.901368 348.844 
L 612.901368 334.481648 
" clip-path="url(#pb2bbbb2331)" style="fill: none; stroke: #4d4d4d; stroke-width: 0.85"/>
    <path d="M 828.156436 179.698732 
L 828.156436 107.316716 
" clip-path="url(#pb2bbbb2331)" style="fill: none; stroke: #4d4d4d; stroke-width: 0.85"/>
   </g>
   <g id="line2d_16">
    <g clip-path="url(#pb2bbbb2331)">
     <use xlink:href="#ma7c0158e72" x="182.391233" y="220.825262" style="fill: #4d4d4d; stroke: #4d4d4d; stroke-width: 0.85"/>
     <use xlink:href="#ma7c0158e72" x="397.646301" y="348.844" style="fill: #4d4d4d; stroke: #4d4d4d; stroke-width: 0.85"/>
     <use xlink:href="#ma7c0158e72" x="612.901368" y="348.844" style="fill: #4d4d4d; stroke: #4d4d4d; stroke-width: 0.85"/>
     <use xlink:href="#ma7c0158e72" x="828.156436" y="179.698732" style="fill: #4d4d4d; stroke: #4d4d4d; stroke-width: 0.85"/>
    </g>
   </g>
   <g id="line2d_17">
    <g clip-path="url(#pb2bbbb2331)">
     <use xlink:href="#ma7c0158e72" x="182.391233" y="148.443246" style="fill: #4d4d4d; stroke: #4d4d4d; stroke-width: 0.85"/>
     <use xlink:href="#ma7c0158e72" x="397.646301" y="334.481648" style="fill: #4d4d4d; stroke: #4d4d4d; stroke-width: 0.85"/>
     <use xlink:href="#ma7c0158e72" x="612.901368" y="334.481648" style="fill: #4d4d4d; stroke: #4d4d4d; stroke-width: 0.85"/>
     <use xlink:href="#ma7c0158e72" x="828.156436" y="107.316716" style="fill: #4d4d4d; stroke: #4d4d4d; stroke-width: 0.85"/>
    </g>
   </g>
   <g id="LineCollection_5">
    <path d="M 212.526943 217.164493 
L 212.526943 144.626463 
" clip-path="url(#pb2bbbb2331)" style="fill: none; stroke: #4d4d4d; stroke-width: 0.85"/>
    <path d="M 427.78201 335.485292 
L 427.78201 295.497499 
" clip-path="url(#pb2bbbb2331)" style="fill: none; stroke: #4d4d4d; stroke-width: 0.85"/>
    <path d="M 643.037078 348.844 
L 643.037078 334.481648 
" clip-path="url(#pb2bbbb2331)" style="fill: none; stroke: #4d4d4d; stroke-width: 0.85"/>
    <path d="M 858.292145 209.795871 
L 858.292145 137.039984 
" clip-path="url(#pb2bbbb2331)" style="fill: none; stroke: #4d4d4d; stroke-width: 0.85"/>
   </g>
   <g id="line2d_18">
    <g clip-path="url(#pb2bbbb2331)">
     <use xlink:href="#ma7c0158e72" x="212.526943" y="217.164493" style="fill: #4d4d4d; stroke: #4d4d4d; stroke-width: 0.85"/>
     <use xlink:href="#ma7c0158e72" x="427.78201" y="335.485292" style="fill: #4d4d4d; stroke: #4d4d4d; stroke-width: 0.85"/>
     <use xlink:href="#ma7c0158e72" x="643.037078" y="348.844" style="fill: #4d4d4d; stroke: #4d4d4d; stroke-width: 0.85"/>
     <use xlink:href="#ma7c0158e72" x="858.292145" y="209.795871" style="fill: #4d4d4d; stroke: #4d4d4d; stroke-width: 0.85"/>
    </g>
   </g>
   <g id="line2d_19">
    <g clip-path="url(#pb2bbbb2331)">
     <use xlink:href="#ma7c0158e72" x="212.526943" y="144.626463" style="fill: #4d4d4d; stroke: #4d4d4d; stroke-width: 0.85"/>
     <use xlink:href="#ma7c0158e72" x="427.78201" y="295.497499" style="fill: #4d4d4d; stroke: #4d4d4d; stroke-width: 0.85"/>
     <use xlink:href="#ma7c0158e72" x="643.037078" y="334.481648" style="fill: #4d4d4d; stroke: #4d4d4d; stroke-width: 0.85"/>
     <use xlink:href="#ma7c0158e72" x="858.292145" y="137.039984" style="fill: #4d4d4d; stroke: #4d4d4d; stroke-width: 0.85"/>
    </g>
   </g>
   <g id="patch_23">
    <path d="M 37.094063 348.844 
L 37.094063 7.2 
" style="fill: none; stroke: #333333; stroke-width: 0.8; stroke-linejoin: miter; stroke-linecap: square"/>
   </g>
   <g id="patch_24">
    <path d="M 37.094063 348.844 
L 913.182188 348.844 
" style="fill: none; stroke: #333333; stroke-width: 0.8; stroke-linejoin: miter; stroke-linecap: square"/>
   </g>
   <g id="text_11">
    <text style="fill: #4d4d4d; font: 6.5px 'Arial', 'DejaVu Sans', 'Liberation Sans', sans-serif; text-anchor: middle" x="91.984105" y="138.900036" transform="rotate(-0 91.984105 138.900036)">45.3%</text>
   </g>
   <g id="text_12">
    <text style="fill: #4d4d4d; font: 6.5px 'Arial', 'DejaVu Sans', 'Liberation Sans', sans-serif; text-anchor: middle" x="307.239172" y="299.751768" transform="rotate(-0 307.239172 299.751768)">5.3%</text>
   </g>
   <g id="text_13">
    <text style="fill: #4d4d4d; font: 6.5px 'Arial', 'DejaVu Sans', 'Liberation Sans', sans-serif; text-anchor: middle" x="522.49424" y="328.755221" transform="rotate(-0 522.49424 328.755221)">0.0%</text>
   </g>
   <g id="text_14">
    <text style="fill: #4d4d4d; font: 6.5px 'Arial', 'DejaVu Sans', 'Liberation Sans', sans-serif; text-anchor: middle" x="737.749307" y="123.789422" transform="rotate(-0 737.749307 123.789422)">49.5%</text>
   </g>
   <g id="text_15">
    <text style="fill: #4d4d4d; font: 6.5px 'Arial', 'DejaVu Sans', 'Liberation Sans', sans-serif; text-anchor: middle" x="122.119814" y="142.716819" transform="rotate(-0 122.119814 142.716819)">44.2%</text>
   </g>
   <g id="text_16">
    <text style="fill: #4d4d4d; font: 6.5px 'Arial', 'DejaVu Sans', 'Liberation Sans', sans-serif; text-anchor: middle" x="337.374882" y="275.483049" transform="rotate(-0 337.374882 275.483049)">10.5%</text>
   </g>
   <g id="text_17">
    <text style="fill: #4d4d4d; font: 6.5px 'Arial', 'DejaVu Sans', 'Liberation Sans', sans-serif; text-anchor: middle" x="552.629949" y="321.965238" transform="rotate(-0 552.629949 321.965238)">1.1%</text>
   </g>
   <g id="text_18">
    <text style="fill: #4d4d4d; font: 6.5px 'Arial', 'DejaVu Sans', 'Liberation Sans', sans-serif; text-anchor: middle" x="767.885017" y="142.716819" transform="rotate(-0 767.885017 142.716819)">44.2%</text>
   </g>
   <g id="text_19">
    <text style="fill: #4d4d4d; font: 6.5px 'Arial', 'DejaVu Sans', 'Liberation Sans', sans-serif; text-anchor: middle" x="152.255524" y="169.885945" transform="rotate(-0 152.255524 169.885945)">36.8%</text>
   </g>
   <g id="text_20">
    <text style="fill: #4d4d4d; font: 6.5px 'Arial', 'DejaVu Sans', 'Liberation Sans', sans-serif; text-anchor: middle" x="367.510591" y="328.755221" transform="rotate(-0 367.510591 328.755221)">0.0%</text>
   </g>
   <g id="text_21">
    <text style="fill: #4d4d4d; font: 6.5px 'Arial', 'DejaVu Sans', 'Liberation Sans', sans-serif; text-anchor: middle" x="582.765659" y="328.755221" transform="rotate(-0 582.765659 328.755221)">0.0%</text>
   </g>
   <g id="text_22">
    <text style="fill: #4d4d4d; font: 6.5px 'Arial', 'DejaVu Sans', 'Liberation Sans', sans-serif; text-anchor: middle" x="798.020726" y="76.416558" transform="rotate(-0 798.020726 76.416558)">63.2%</text>
   </g>
   <g id="text_23">
    <text style="fill: #4d4d4d; font: 6.5px 'Arial', 'DejaVu Sans', 'Liberation Sans', sans-serif; text-anchor: middle" x="182.391233" y="142.716819" transform="rotate(-0 182.391233 142.716819)">44.2%</text>
   </g>
   <g id="text_24">
    <text style="fill: #4d4d4d; font: 6.5px 'Arial', 'DejaVu Sans', 'Liberation Sans', sans-serif; text-anchor: middle" x="397.646301" y="328.755221" transform="rotate(-0 397.646301 328.755221)">0.0%</text>
   </g>
   <g id="text_25">
    <text style="fill: #4d4d4d; font: 6.5px 'Arial', 'DejaVu Sans', 'Liberation Sans', sans-serif; text-anchor: middle" x="612.901368" y="328.755221" transform="rotate(-0 612.901368 328.755221)">0.0%</text>
   </g>
   <g id="text_26">
    <text style="fill: #4d4d4d; font: 6.5px 'Arial', 'DejaVu Sans', 'Liberation Sans', sans-serif; text-anchor: middle" x="828.156436" y="101.590288" transform="rotate(-0 828.156436 101.590288)">55.8%</text>
   </g>
   <g id="text_27">
    <text style="fill: #4d4d4d; font: 6.5px 'Arial', 'DejaVu Sans', 'Liberation Sans', sans-serif; text-anchor: middle" x="212.526943" y="138.900036" transform="rotate(-0 212.526943 138.900036)">45.3%</text>
   </g>
   <g id="text_28">
    <text style="fill: #4d4d4d; font: 6.5px 'Arial', 'DejaVu Sans', 'Liberation Sans', sans-serif; text-anchor: middle" x="427.78201" y="289.771072" transform="rotate(-0 427.78201 289.771072)">7.4%</text>
   </g>
   <g id="text_29">
    <text style="fill: #4d4d4d; font: 6.5px 'Arial', 'DejaVu Sans', 'Liberation Sans', sans-serif; text-anchor: middle" x="643.037078" y="328.755221" transform="rotate(-0 643.037078 328.755221)">0.0%</text>
   </g>
   <g id="text_30">
    <text style="fill: #4d4d4d; font: 6.5px 'Arial', 'DejaVu Sans', 'Liberation Sans', sans-serif; text-anchor: middle" x="858.292145" y="131.313557" transform="rotate(-0 858.292145 131.313557)">47.4%</text>
   </g>
   <g id="legend_1">
    <g id="patch_25">
     <path d="M 739.819688 20.12625 
L 755.819688 20.12625 
L 755.819688 14.52625 
L 739.819688 14.52625 
z
" style="fill: #d95f02; opacity: 0.88; stroke: #ffffff; stroke-width: 0.5; stroke-linejoin: miter"/>
    </g>
    <g id="text_31">
     <text style="fill: #333333; font: 8px 'Arial', 'DejaVu Sans', 'Liberation Sans', sans-serif; text-anchor: start" x="762.219688" y="20.12625" transform="rotate(-0 762.219688 20.12625)">Clinician A</text>
    </g>
    <g id="patch_26">
     <path d="M 739.819688 31.4425 
L 755.819688 31.4425 
L 755.819688 25.8425 
L 739.819688 25.8425 
z
" style="fill: url(#h26a7f2a27d); opacity: 0.88; stroke: #ffffff; stroke-width: 0.5; stroke-linejoin: miter"/>
    </g>
    <g id="text_32">
     <text style="fill: #333333; font: 8px 'Arial', 'DejaVu Sans', 'Liberation Sans', sans-serif; text-anchor: start" x="762.219688" y="31.4425" transform="rotate(-0 762.219688 31.4425)">Clinician B</text>
    </g>
    <g id="patch_27">
     <path d="M 739.819688 42.75875 
L 755.819688 42.75875 
L 755.819688 37.15875 
L 739.819688 37.15875 
z
" style="fill: #0f4d92; opacity: 0.88; stroke: #ffffff; stroke-width: 0.5; stroke-linejoin: miter"/>
    </g>
    <g id="text_33">
     <text style="fill: #333333; font: 8px 'Arial', 'DejaVu Sans', 'Liberation Sans', sans-serif; text-anchor: start" x="762.219688" y="42.75875" transform="rotate(-0 762.219688 42.75875)">GPT-4o mini</text>
    </g>
    <g id="patch_28">
     <path d="M 822.675938 20.12625 
L 838.675938 20.12625 
L 838.675938 14.52625 
L 822.675938 14.52625 
z
" style="fill: url(#h4febadb8d9); opacity: 0.88; stroke: #ffffff; stroke-width: 0.5; stroke-linejoin: miter"/>
    </g>
    <g id="text_34">
     <text style="fill: #333333; font: 8px 'Arial', 'DejaVu Sans', 'Liberation Sans', sans-serif; text-anchor: start" x="845.075938" y="20.12625" transform="rotate(-0 845.075938 20.12625)">Grok-4 Fast</text>
    </g>
    <g id="patch_29">
     <path d="M 822.675938 31.4425 
L 838.675938 31.4425 
L 838.675938 25.8425 
L 822.675938 25.8425 
z
" style="fill: url(#h97c68797d0); opacity: 0.88; stroke: #ffffff; stroke-width: 0.5; stroke-linejoin: miter"/>
    </g>
    <g id="text_35">
     <text style="fill: #333333; font: 8px 'Arial', 'DejaVu Sans', 'Liberation Sans', sans-serif; text-anchor: start" x="845.075938" y="31.4425" transform="rotate(-0 845.075938 31.4425)">Gemini-2.5 Flash</text>
    </g>
   </g>
  </g>
 </g>
 <defs>
  <clipPath id="pb2bbbb2331">
   <rect x="37.094063" y="7.2" width="876.088125" height="341.644"/>
  </clipPath>
 </defs>
 <defs>
  <pattern id="h26a7f2a27d" patternUnits="userSpaceOnUse" x="0" y="0" width="72" height="72">
   <rect x="0" y="0" width="73" height="73" fill="#e6a817"/>
   <path d="M -36 36 
L 36 -36 
M -32 40 
L 40 -32 
M -28 44 
L 44 -28 
M -24 48 
L 48 -24 
M -20 52 
L 52 -20 
M -16 56 
L 56 -16 
M -12 60 
L 60 -12 
M -8 64 
L 64 -8 
M -4 68 
L 68 -4 
M 0 72 
L 72 0 
M 4 76 
L 76 4 
M 8 80 
L 80 8 
M 12 84 
L 84 12 
M 16 88 
L 88 16 
M 20 92 
L 92 20 
M 24 96 
L 96 24 
M 28 100 
L 100 28 
M 32 104 
L 104 32 
M 36 108 
L 108 36 
" style="fill: #ffffff; stroke: #ffffff; stroke-width: 1.0; stroke-linecap: butt; stroke-linejoin: miter; stroke-opacity: 0.88"/>
  </pattern>
  <pattern id="h4febadb8d9" patternUnits="userSpaceOnUse" x="0" y="0" width="72" height="72">
   <rect x="0" y="0" width="73" height="73" fill="#42949e"/>
   <path d="M -36 36 
L 36 -36 
M -32 40 
L 40 -32 
M -28 44 
L 44 -28 
M -24 48 
L 48 -24 
M -20 52 
L 52 -20 
M -16 56 
L 56 -16 
M -12 60 
L 60 -12 
M -8 64 
L 64 -8 
M -4 68 
L 68 -4 
M 0 72 
L 72 0 
M 4 76 
L 76 4 
M 8 80 
L 80 8 
M 12 84 
L 84 12 
M 16 88 
L 88 16 
M 20 92 
L 92 20 
M 24 96 
L 96 24 
M 28 100 
L 100 28 
M 32 104 
L 104 32 
M 36 108 
L 108 36 
" style="fill: #ffffff; stroke: #ffffff; stroke-width: 1.0; stroke-linecap: butt; stroke-linejoin: miter; stroke-opacity: 0.88"/>
  </pattern>
  <pattern id="h97c68797d0" patternUnits="userSpaceOnUse" x="0" y="0" width="72" height="72">
   <rect x="0" y="0" width="73" height="73" fill="#9a4d8e"/>
   <path d="M 0 72.6 
C 0.159122 72.6 0.311748 72.53678 0.424264 72.424264 
C 0.53678 72.311748 0.6 72.159122 0.6 72 
C 0.6 71.840878 0.53678 71.688252 0.424264 71.575736 
C 0.311748 71.46322 0.159122 71.4 0 71.4 
C -0.159122 71.4 -0.311748 71.46322 -0.424264 71.575736 
C -0.53678 71.688252 -0.6 71.840878 -0.6 72 
C -0.6 72.159122 -0.53678 72.311748 -0.424264 72.424264 
C -0.311748 72.53678 -0.159122 72.6 0 72.6 
z
M 6 72.6 
C 6.159122 72.6 6.311748 72.53678 6.424264 72.424264 
C 6.53678 72.311748 6.6 72.159122 6.6 72 
C 6.6 71.840878 6.53678 71.688252 6.424264 71.575736 
C 6.311748 71.46322 6.159122 71.4 6 71.4 
C 5.840878 71.4 5.688252 71.46322 5.575736 71.575736 
C 5.46322 71.688252 5.4 71.840878 5.4 72 
C 5.4 72.159122 5.46322 72.311748 5.575736 72.424264 
C 5.688252 72.53678 5.840878 72.6 6 72.6 
z
M 12 72.6 
C 12.159122 72.6 12.311748 72.53678 12.424264 72.424264 
C 12.53678 72.311748 12.6 72.159122 12.6 72 
C 12.6 71.840878 12.53678 71.688252 12.424264 71.575736 
C 12.311748 71.46322 12.159122 71.4 12 71.4 
C 11.840878 71.4 11.688252 71.46322 11.575736 71.575736 
C 11.46322 71.688252 11.4 71.840878 11.4 72 
C 11.4 72.159122 11.46322 72.311748 11.575736 72.424264 
C 11.688252 72.53678 11.840878 72.6 12 72.6 
z
M 18 72.6 
C 18.159122 72.6 18.311748 72.53678 18.424264 72.424264 
C 18.53678 72.311748 18.6 72.159122 18.6 72 
C 18.6 71.840878 18.53678 71.688252 18.424264 71.575736 
C 18.311748 71.46322 18.159122 71.4 18 71.4 
C 17.840878 71.4 17.688252 71.46322 17.575736 71.575736 
C 17.46322 71.688252 17.4 71.840878 17.4 72 
C 17.4 72.159122 17.46322 72.311748 17.575736 72.424264 
C 17.688252 72.53678 17.840878 72.6 18 72.6 
z
M 24 72.6 
C 24.159122 72.6 24.311748 72.53678 24.424264 72.424264 
C 24.53678 72.311748 24.6 72.159122 24.6 72 
C 24.6 71.840878 24.53678 71.688252 24.424264 71.575736 
C 24.311748 71.46322 24.159122 71.4 24 71.4 
C 23.840878 71.4 23.688252 71.46322 23.575736 71.575736 
C 23.46322 71.688252 23.4 71.840878 23.4 72 
C 23.4 72.159122 23.46322 72.311748 23.575736 72.424264 
C 23.688252 72.53678 23.840878 72.6 24 72.6 
z
M 30 72.6 
C 30.159122 72.6 30.311748 72.53678 30.424264 72.424264 
C 30.53678 72.311748 30.6 72.159122 30.6 72 
C 30.6 71.840878 30.53678 71.688252 30.424264 71.575736 
C 30.311748 71.46322 30.159122 71.4 30 71.4 
C 29.840878 71.4 29.688252 71.46322 29.575736 71.575736 
C 29.46322 71.688252 29.4 71.840878 29.4 72 
C 29.4 72.159122 29.46322 72.311748 29.575736 72.424264 
C 29.688252 72.53678 29.840878 72.6 30 72.6 
z
M 36 72.6 
C 36.159122 72.6 36.311748 72.53678 36.424264 72.424264 
C 36.53678 72.311748 36.6 72.159122 36.6 72 
C 36.6 71.840878 36.53678 71.688252 36.424264 71.575736 
C 36.311748 71.46322 36.159122 71.4 36 71.4 
C 35.840878 71.4 35.688252 71.46322 35.575736 71.575736 
C 35.46322 71.688252 35.4 71.840878 35.4 72 
C 35.4 72.159122 35.46322 72.311748 35.575736 72.424264 
C 35.688252 72.53678 35.840878 72.6 36 72.6 
z
M 42 72.6 
C 42.159122 72.6 42.311748 72.53678 42.424264 72.424264 
C 42.53678 72.311748 42.6 72.159122 42.6 72 
C 42.6 71.840878 42.53678 71.688252 42.424264 71.575736 
C 42.311748 71.46322 42.159122 71.4 42 71.4 
C 41.840878 71.4 41.688252 71.46322 41.575736 71.575736 
C 41.46322 71.688252 41.4 71.840878 41.4 72 
C 41.4 72.159122 41.46322 72.311748 41.575736 72.424264 
C 41.688252 72.53678 41.840878 72.6 42 72.6 
z
M 48 72.6 
C 48.159122 72.6 48.311748 72.53678 48.424264 72.424264 
C 48.53678 72.311748 48.6 72.159122 48.6 72 
C 48.6 71.840878 48.53678 71.688252 48.424264 71.575736 
C 48.311748 71.46322 48.159122 71.4 48 71.4 
C 47.840878 71.4 47.688252 71.46322 47.575736 71.575736 
C 47.46322 71.688252 47.4 71.840878 47.4 72 
C 47.4 72.159122 47.46322 72.311748 47.575736 72.424264 
C 47.688252 72.53678 47.840878 72.6 48 72.6 
z
M 54 72.6 
C 54.159122 72.6 54.311748 72.53678 54.424264 72.424264 
C 54.53678 72.311748 54.6 72.159122 54.6 72 
C 54.6 71.840878 54.53678 71.688252 54.424264 71.575736 
C 54.311748 71.46322 54.159122 71.4 54 71.4 
C 53.840878 71.4 53.688252 71.46322 53.575736 71.575736 
C 53.46322 71.688252 53.4 71.840878 53.4 72 
C 53.4 72.159122 53.46322 72.311748 53.575736 72.424264 
C 53.688252 72.53678 53.840878 72.6 54 72.6 
z
M 60 72.6 
C 60.159122 72.6 60.311748 72.53678 60.424264 72.424264 
C 60.53678 72.311748 60.6 72.159122 60.6 72 
C 60.6 71.840878 60.53678 71.688252 60.424264 71.575736 
C 60.311748 71.46322 60.159122 71.4 60 71.4 
C 59.840878 71.4 59.688252 71.46322 59.575736 71.575736 
C 59.46322 71.688252 59.4 71.840878 59.4 72 
C 59.4 72.159122 59.46322 72.311748 59.575736 72.424264 
C 59.688252 72.53678 59.840878 72.6 60 72.6 
z
M 66 72.6 
C 66.159122 72.6 66.311748 72.53678 66.424264 72.424264 
C 66.53678 72.311748 66.6 72.159122 66.6 72 
C 66.6 71.840878 66.53678 71.688252 66.424264 71.575736 
C 66.311748 71.46322 66.159122 71.4 66 71.4 
C 65.840878 71.4 65.688252 71.46322 65.575736 71.575736 
C 65.46322 71.688252 65.4 71.840878 65.4 72 
C 65.4 72.159122 65.46322 72.311748 65.575736 72.424264 
C 65.688252 72.53678 65.840878 72.6 66 72.6 
z
M 72 72.6 
C 72.159122 72.6 72.311748 72.53678 72.424264 72.424264 
C 72.53678 72.311748 72.6 72.159122 72.6 72 
C 72.6 71.840878 72.53678 71.688252 72.424264 71.575736 
C 72.311748 71.46322 72.159122 71.4 72 71.4 
C 71.840878 71.4 71.688252 71.46322 71.575736 71.575736 
C 71.46322 71.688252 71.4 71.840878 71.4 72 
C 71.4 72.159122 71.46322 72.311748 71.575736 72.424264 
C 71.688252 72.53678 71.840878 72.6 72 72.6 
z
M 3 66.6 
C 3.159122 66.6 3.311748 66.53678 3.424264 66.424264 
C 3.53678 66.311748 3.6 66.159122 3.6 66 
C 3.6 65.840878 3.53678 65.688252 3.424264 65.575736 
C 3.311748 65.46322 3.159122 65.4 3 65.4 
C 2.840878 65.4 2.688252 65.46322 2.575736 65.575736 
C 2.46322 65.688252 2.4 65.840878 2.4 66 
C 2.4 66.159122 2.46322 66.311748 2.575736 66.424264 
C 2.688252 66.53678 2.840878 66.6 3 66.6 
z
M 9 66.6 
C 9.159122 66.6 9.311748 66.53678 9.424264 66.424264 
C 9.53678 66.311748 9.6 66.159122 9.6 66 
C 9.6 65.840878 9.53678 65.688252 9.424264 65.575736 
C 9.311748 65.46322 9.159122 65.4 9 65.4 
C 8.840878 65.4 8.688252 65.46322 8.575736 65.575736 
C 8.46322 65.688252 8.4 65.840878 8.4 66 
C 8.4 66.159122 8.46322 66.311748 8.575736 66.424264 
C 8.688252 66.53678 8.840878 66.6 9 66.6 
z
M 15 66.6 
C 15.159122 66.6 15.311748 66.53678 15.424264 66.424264 
C 15.53678 66.311748 15.6 66.159122 15.6 66 
C 15.6 65.840878 15.53678 65.688252 15.424264 65.575736 
C 15.311748 65.46322 15.159122 65.4 15 65.4 
C 14.840878 65.4 14.688252 65.46322 14.575736 65.575736 
C 14.46322 65.688252 14.4 65.840878 14.4 66 
C 14.4 66.159122 14.46322 66.311748 14.575736 66.424264 
C 14.688252 66.53678 14.840878 66.6 15 66.6 
z
M 21 66.6 
C 21.159122 66.6 21.311748 66.53678 21.424264 66.424264 
C 21.53678 66.311748 21.6 66.159122 21.6 66 
C 21.6 65.840878 21.53678 65.688252 21.424264 65.575736 
C 21.311748 65.46322 21.159122 65.4 21 65.4 
C 20.840878 65.4 20.688252 65.46322 20.575736 65.575736 
C 20.46322 65.688252 20.4 65.840878 20.4 66 
C 20.4 66.159122 20.46322 66.311748 20.575736 66.424264 
C 20.688252 66.53678 20.840878 66.6 21 66.6 
z
M 27 66.6 
C 27.159122 66.6 27.311748 66.53678 27.424264 66.424264 
C 27.53678 66.311748 27.6 66.159122 27.6 66 
C 27.6 65.840878 27.53678 65.688252 27.424264 65.575736 
C 27.311748 65.46322 27.159122 65.4 27 65.4 
C 26.840878 65.4 26.688252 65.46322 26.575736 65.575736 
C 26.46322 65.688252 26.4 65.840878 26.4 66 
C 26.4 66.159122 26.46322 66.311748 26.575736 66.424264 
C 26.688252 66.53678 26.840878 66.6 27 66.6 
z
M 33 66.6 
C 33.159122 66.6 33.311748 66.53678 33.424264 66.424264 
C 33.53678 66.311748 33.6 66.159122 33.6 66 
C 33.6 65.840878 33.53678 65.688252 33.424264 65.575736 
C 33.311748 65.46322 33.159122 65.4 33 65.4 
C 32.840878 65.4 32.688252 65.46322 32.575736 65.575736 
C 32.46322 65.688252 32.4 65.840878 32.4 66 
C 32.4 66.159122 32.46322 66.311748 32.575736 66.424264 
C 32.688252 66.53678 32.840878 66.6 33 66.6 
z
M 39 66.6 
C 39.159122 66.6 39.311748 66.53678 39.424264 66.424264 
C 39.53678 66.311748 39.6 66.159122 39.6 66 
C 39.6 65.840878 39.53678 65.688252 39.424264 65.575736 
C 39.311748 65.46322 39.159122 65.4 39 65.4 
C 38.840878 65.4 38.688252 65.46322 38.575736 65.575736 
C 38.46322 65.688252 38.4 65.840878 38.4 66 
C 38.4 66.159122 38.46322 66.311748 38.575736 66.424264 
C 38.688252 66.53678 38.840878 66.6 39 66.6 
z
M 45 66.6 
C 45.159122 66.6 45.311748 66.53678 45.424264 66.424264 
C 45.53678 66.311748 45.6 66.159122 45.6 66 
C 45.6 65.840878 45.53678 65.688252 45.424264 65.575736 
C 45.311748 65.46322 45.159122 65.4 45 65.4 
C 44.840878 65.4 44.688252 65.46322 44.575736 65.575736 
C 44.46322 65.688252 44.4 65.840878 44.4 66 
C 44.4 66.159122 44.46322 66.311748 44.575736 66.424264 
C 44.688252 66.53678 44.840878 66.6 45 66.6 
z
M 51 66.6 
C 51.159122 66.6 51.311748 66.53678 51.424264 66.424264 
C 51.53678 66.311748 51.6 66.159122 51.6 66 
C 51.6 65.840878 51.53678 65.688252 51.424264 65.575736 
C 51.311748 65.46322 51.159122 65.4 51 65.4 
C 50.840878 65.4 50.688252 65.46322 50.575736 65.575736 
C 50.46322 65.688252 50.4 65.840878 50.4 66 
C 50.4 66.159122 50.46322 66.311748 50.575736 66.424264 
C 50.688252 66.53678 50.840878 66.6 51 66.6 
z
M 57 66.6 
C 57.159122 66.6 57.311748 66.53678 57.424264 66.424264 
C 57.53678 66.311748 57.6 66.159122 57.6 66 
C 57.6 65.840878 57.53678 65.688252 57.424264 65.575736 
C 57.311748 65.46322 57.159122 65.4 57 65.4 
C 56.840878 65.4 56.688252 65.46322 56.575736 65.575736 
C 56.46322 65.688252 56.4 65.840878 56.4 66 
C 56.4 66.159122 56.46322 66.311748 56.575736 66.424264 
C 56.688252 66.53678 56.840878 66.6 57 66.6 
z
M 63 66.6 
C 63.159122 66.6 63.311748 66.53678 63.424264 66.424264 
C 63.53678 66.311748 63.6 66.159122 63.6 66 
C 63.6 65.840878 63.53678 65.688252 63.424264 65.575736 
C 63.311748 65.46322 63.159122 65.4 63 65.4 
C 62.840878 65.4 62.688252 65.46322 62.575736 65.575736 
C 62.46322 65.688252 62.4 65.840878 62.4 66 
C 62.4 66.159122 62.46322 66.311748 62.575736 66.424264 
C 62.688252 66.53678 62.840878 66.6 63 66.6 
z
M 69 66.6 
C 69.159122 66.6 69.311748 66.53678 69.424264 66.424264 
C 69.53678 66.311748 69.6 66.159122 69.6 66 
C 69.6 65.840878 69.53678 65.688252 69.424264 65.575736 
C 69.311748 65.46322 69.159122 65.4 69 65.4 
C 68.840878 65.4 68.688252 65.46322 68.575736 65.575736 
C 68.46322 65.688252 68.4 65.840878 68.4 66 
C 68.4 66.159122 68.46322 66.311748 68.575736 66.424264 
C 68.688252 66.53678 68.840878 66.6 69 66.6 
z
M 0 60.6 
C 0.159122 60.6 0.311748 60.53678 0.424264 60.424264 
C 0.53678 60.311748 0.6 60.159122 0.6 60 
C 0.6 59.840878 0.53678 59.688252 0.424264 59.575736 
C 0.311748 59.46322 0.159122 59.4 0 59.4 
C -0.159122 59.4 -0.311748 59.46322 -0.424264 59.575736 
C -0.53678 59.688252 -0.6 59.840878 -0.6 60 
C -0.6 60.159122 -0.53678 60.311748 -0.424264 60.424264 
C -0.311748 60.53678 -0.159122 60.6 0 60.6 
z
M 6 60.6 
C 6.159122 60.6 6.311748 60.53678 6.424264 60.424264 
C 6.53678 60.311748 6.6 60.159122 6.6 60 
C 6.6 59.840878 6.53678 59.688252 6.424264 59.575736 
C 6.311748 59.46322 6.159122 59.4 6 59.4 
C 5.840878 59.4 5.688252 59.46322 5.575736 59.575736 
C 5.46322 59.688252 5.4 59.840878 5.4 60 
C 5.4 60.159122 5.46322 60.311748 5.575736 60.424264 
C 5.688252 60.53678 5.840878 60.6 6 60.6 
z
M 12 60.6 
C 12.159122 60.6 12.311748 60.53678 12.424264 60.424264 
C 12.53678 60.311748 12.6 60.159122 12.6 60 
C 12.6 59.840878 12.53678 59.688252 12.424264 59.575736 
C 12.311748 59.46322 12.159122 59.4 12 59.4 
C 11.840878 59.4 11.688252 59.46322 11.575736 59.575736 
C 11.46322 59.688252 11.4 59.840878 11.4 60 
C 11.4 60.159122 11.46322 60.311748 11.575736 60.424264 
C 11.688252 60.53678 11.840878 60.6 12 60.6 
z
M 18 60.6 
C 18.159122 60.6 18.311748 60.53678 18.424264 60.424264 
C 18.53678 60.311748 18.6 60.159122 18.6 60 
C 18.6 59.840878 18.53678 59.688252 18.424264 59.575736 
C 18.311748 59.46322 18.159122 59.4 18 59.4 
C 17.840878 59.4 17.688252 59.46322 17.575736 59.575736 
C 17.46322 59.688252 17.4 59.840878 17.4 60 
C 17.4 60.159122 17.46322 60.311748 17.575736 60.424264 
C 17.688252 60.53678 17.840878 60.6 18 60.6 
z
M 24 60.6 
C 24.159122 60.6 24.311748 60.53678 24.424264 60.424264 
C 24.53678 60.311748 24.6 60.159122 24.6 60 
C 24.6 59.840878 24.53678 59.688252 24.424264 59.575736 
C 24.311748 59.46322 24.159122 59.4 24 59.4 
C 23.840878 59.4 23.688252 59.46322 23.575736 59.575736 
C 23.46322 59.688252 23.4 59.840878 23.4 60 
C 23.4 60.159122 23.46322 60.311748 23.575736 60.424264 
C 23.688252 60.53678 23.840878 60.6 24 60.6 
z
M 30 60.6 
C 30.159122 60.6 30.311748 60.53678 30.424264 60.424264 
C 30.53678 60.311748 30.6 60.159122 30.6 60 
C 30.6 59.840878 30.53678 59.688252 30.424264 59.575736 
C 30.311748 59.46322 30.159122 59.4 30 59.4 
C 29.840878 59.4 29.688252 59.46322 29.575736 59.575736 
C 29.46322 59.688252 29.4 59.840878 29.4 60 
C 29.4 60.159122 29.46322 60.311748 29.575736 60.424264 
C 29.688252 60.53678 29.840878 60.6 30 60.6 
z
M 36 60.6 
C 36.159122 60.6 36.311748 60.53678 36.424264 60.424264 
C 36.53678 60.311748 36.6 60.159122 36.6 60 
C 36.6 59.840878 36.53678 59.688252 36.424264 59.575736 
C 36.311748 59.46322 36.159122 59.4 36 59.4 
C 35.840878 59.4 35.688252 59.46322 35.575736 59.575736 
C 35.46322 59.688252 35.4 59.840878 35.4 60 
C 35.4 60.159122 35.46322 60.311748 35.575736 60.424264 
C 35.688252 60.53678 35.840878 60.6 36 60.6 
z
M 42 60.6 
C 42.159122 60.6 42.311748 60.53678 42.424264 60.424264 
C 42.53678 60.311748 42.6 60.159122 42.6 60 
C 42.6 59.840878 42.53678 59.688252 42.424264 59.575736 
C 42.311748 59.46322 42.159122 59.4 42 59.4 
C 41.840878 59.4 41.688252 59.46322 41.575736 59.575736 
C 41.46322 59.688252 41.4 59.840878 41.4 60 
C 41.4 60.159122 41.46322 60.311748 41.575736 60.424264 
C 41.688252 60.53678 41.840878 60.6 42 60.6 
z
M 48 60.6 
C 48.159122 60.6 48.311748 60.53678 48.424264 60.424264 
C 48.53678 60.311748 48.6 60.159122 48.6 60 
C 48.6 59.840878 48.53678 59.688252 48.424264 59.575736 
C 48.311748 59.46322 48.159122 59.4 48 59.4 
C 47.840878 59.4 47.688252 59.46322 47.575736 59.575736 
C 47.46322 59.688252 47.4 59.840878 47.4 60 
C 47.4 60.159122 47.46322 60.311748 47.575736 60.424264 
C 47.688252 60.53678 47.840878 60.6 48 60.6 
z
M 54 60.6 
C 54.159122 60.6 54.311748 60.53678 54.424264 60.424264 
C 54.53678 60.311748 54.6 60.159122 54.6 60 
C 54.6 59.840878 54.53678 59.688252 54.424264 59.575736 
C 54.311748 59.46322 54.159122 59.4 54 59.4 
C 53.840878 59.4 53.688252 59.46322 53.575736 59.575736 
C 53.46322 59.688252 53.4 59.840878 53.4 60 
C 53.4 60.159122 53.46322 60.311748 53.575736 60.424264 
C 53.688252 60.53678 53.840878 60.6 54 60.6 
z
M 60 60.6 
C 60.159122 60.6 60.311748 60.53678 60.424264 60.424264 
C 60.53678 60.311748 60.6 60.159122 60.6 60 
C 60.6 59.840878 60.53678 59.688252 60.424264 59.575736 
C 60.311748 59.46322 60.159122 59.4 60 59.4 
C 59.840878 59.4 59.688252 59.46322 59.575736 59.575736 
C 59.46322 59.688252 59.4 59.840878 59.4 60 
C 59.4 60.159122 59.46322 60.311748 59.575736 60.424264 
C 59.688252 60.53678 59.840878 60.6 60 60.6 
z
M 66 60.6 
C 66.159122 60.6 66.311748 60.53678 66.424264 60.424264 
C 66.53678 60.311748 66.6 60.159122 66.6 60 
C 66.6 59.840878 66.53678 59.688252 66.424264 59.575736 
C 66.311748 59.46322 66.159122 59.4 66 59.4 
C 65.840878 59.4 65.688252 59.46322 65.575736 59.575736 
C 65.46322 59.688252 65.4 59.840878 65.4 60 
C 65.4 60.159122 65.46322 60.311748 65.575736 60.424264 
C 65.688252 60.53678 65.840878 60.6 66 60.6 
z
M 72 60.6 
C 72.159122 60.6 72.311748 60.53678 72.424264 60.424264 
C 72.53678 60.311748 72.6 60.159122 72.6 60 
C 72.6 59.840878 72.53678 59.688252 72.424264 59.575736 
C 72.311748 59.46322 72.159122 59.4 72 59.4 
C 71.840878 59.4 71.688252 59.46322 71.575736 59.575736 
C 71.46322 59.688252 71.4 59.840878 71.4 60 
C 71.4 60.159122 71.46322 60.311748 71.575736 60.424264 
C 71.688252 60.53678 71.840878 60.6 72 60.6 
z
M 3 54.6 
C 3.159122 54.6 3.311748 54.53678 3.424264 54.424264 
C 3.53678 54.311748 3.6 54.159122 3.6 54 
C 3.6 53.840878 3.53678 53.688252 3.424264 53.575736 
C 3.311748 53.46322 3.159122 53.4 3 53.4 
C 2.840878 53.4 2.688252 53.46322 2.575736 53.575736 
C 2.46322 53.688252 2.4 53.840878 2.4 54 
C 2.4 54.159122 2.46322 54.311748 2.575736 54.424264 
C 2.688252 54.53678 2.840878 54.6 3 54.6 
z
M 9 54.6 
C 9.159122 54.6 9.311748 54.53678 9.424264 54.424264 
C 9.53678 54.311748 9.6 54.159122 9.6 54 
C 9.6 53.840878 9.53678 53.688252 9.424264 53.575736 
C 9.311748 53.46322 9.159122 53.4 9 53.4 
C 8.840878 53.4 8.688252 53.46322 8.575736 53.575736 
C 8.46322 53.688252 8.4 53.840878 8.4 54 
C 8.4 54.159122 8.46322 54.311748 8.575736 54.424264 
C 8.688252 54.53678 8.840878 54.6 9 54.6 
z
M 15 54.6 
C 15.159122 54.6 15.311748 54.53678 15.424264 54.424264 
C 15.53678 54.311748 15.6 54.159122 15.6 54 
C 15.6 53.840878 15.53678 53.688252 15.424264 53.575736 
C 15.311748 53.46322 15.159122 53.4 15 53.4 
C 14.840878 53.4 14.688252 53.46322 14.575736 53.575736 
C 14.46322 53.688252 14.4 53.840878 14.4 54 
C 14.4 54.159122 14.46322 54.311748 14.575736 54.424264 
C 14.688252 54.53678 14.840878 54.6 15 54.6 
z
M 21 54.6 
C 21.159122 54.6 21.311748 54.53678 21.424264 54.424264 
C 21.53678 54.311748 21.6 54.159122 21.6 54 
C 21.6 53.840878 21.53678 53.688252 21.424264 53.575736 
C 21.311748 53.46322 21.159122 53.4 21 53.4 
C 20.840878 53.4 20.688252 53.46322 20.575736 53.575736 
C 20.46322 53.688252 20.4 53.840878 20.4 54 
C 20.4 54.159122 20.46322 54.311748 20.575736 54.424264 
C 20.688252 54.53678 20.840878 54.6 21 54.6 
z
M 27 54.6 
C 27.159122 54.6 27.311748 54.53678 27.424264 54.424264 
C 27.53678 54.311748 27.6 54.159122 27.6 54 
C 27.6 53.840878 27.53678 53.688252 27.424264 53.575736 
C 27.311748 53.46322 27.159122 53.4 27 53.4 
C 26.840878 53.4 26.688252 53.46322 26.575736 53.575736 
C 26.46322 53.688252 26.4 53.840878 26.4 54 
C 26.4 54.159122 26.46322 54.311748 26.575736 54.424264 
C 26.688252 54.53678 26.840878 54.6 27 54.6 
z
M 33 54.6 
C 33.159122 54.6 33.311748 54.53678 33.424264 54.424264 
C 33.53678 54.311748 33.6 54.159122 33.6 54 
C 33.6 53.840878 33.53678 53.688252 33.424264 53.575736 
C 33.311748 53.46322 33.159122 53.4 33 53.4 
C 32.840878 53.4 32.688252 53.46322 32.575736 53.575736 
C 32.46322 53.688252 32.4 53.840878 32.4 54 
C 32.4 54.159122 32.46322 54.311748 32.575736 54.424264 
C 32.688252 54.53678 32.840878 54.6 33 54.6 
z
M 39 54.6 
C 39.159122 54.6 39.311748 54.53678 39.424264 54.424264 
C 39.53678 54.311748 39.6 54.159122 39.6 54 
C 39.6 53.840878 39.53678 53.688252 39.424264 53.575736 
C 39.311748 53.46322 39.159122 53.4 39 53.4 
C 38.840878 53.4 38.688252 53.46322 38.575736 53.575736 
C 38.46322 53.688252 38.4 53.840878 38.4 54 
C 38.4 54.159122 38.46322 54.311748 38.575736 54.424264 
C 38.688252 54.53678 38.840878 54.6 39 54.6 
z
M 45 54.6 
C 45.159122 54.6 45.311748 54.53678 45.424264 54.424264 
C 45.53678 54.311748 45.6 54.159122 45.6 54 
C 45.6 53.840878 45.53678 53.688252 45.424264 53.575736 
C 45.311748 53.46322 45.159122 53.4 45 53.4 
C 44.840878 53.4 44.688252 53.46322 44.575736 53.575736 
C 44.46322 53.688252 44.4 53.840878 44.4 54 
C 44.4 54.159122 44.46322 54.311748 44.575736 54.424264 
C 44.688252 54.53678 44.840878 54.6 45 54.6 
z
M 51 54.6 
C 51.159122 54.6 51.311748 54.53678 51.424264 54.424264 
C 51.53678 54.311748 51.6 54.159122 51.6 54 
C 51.6 53.840878 51.53678 53.688252 51.424264 53.575736 
C 51.311748 53.46322 51.159122 53.4 51 53.4 
C 50.840878 53.4 50.688252 53.46322 50.575736 53.575736 
C 50.46322 53.688252 50.4 53.840878 50.4 54 
C 50.4 54.159122 50.46322 54.311748 50.575736 54.424264 
C 50.688252 54.53678 50.840878 54.6 51 54.6 
z
M 57 54.6 
C 57.159122 54.6 57.311748 54.53678 57.424264 54.424264 
C 57.53678 54.311748 57.6 54.159122 57.6 54 
C 57.6 53.840878 57.53678 53.688252 57.424264 53.575736 
C 57.311748 53.46322 57.159122 53.4 57 53.4 
C 56.840878 53.4 56.688252 53.46322 56.575736 53.575736 
C 56.46322 53.688252 56.4 53.840878 56.4 54 
C 56.4 54.159122 56.46322 54.311748 56.575736 54.424264 
C 56.688252 54.53678 56.840878 54.6 57 54.6 
z
M 63 54.6 
C 63.159122 54.6 63.311748 54.53678 63.424264 54.424264 
C 63.53678 54.311748 63.6 54.159122 63.6 54 
C 63.6 53.840878 63.53678 53.688252 63.424264 53.575736 
C 63.311748 53.46322 63.159122 53.4 63 53.4 
C 62.840878 53.4 62.688252 53.46322 62.575736 53.575736 
C 62.46322 53.688252 62.4 53.840878 62.4 54 
C 62.4 54.159122 62.46322 54.311748 62.575736 54.424264 
C 62.688252 54.53678 62.840878 54.6 63 54.6 
z
M 69 54.6 
C 69.159122 54.6 69.311748 54.53678 69.424264 54.424264 
C 69.53678 54.311748 69.6 54.159122 69.6 54 
C 69.6 53.840878 69.53678 53.688252 69.424264 53.575736 
C 69.311748 53.46322 69.159122 53.4 69 53.4 
C 68.840878 53.4 68.688252 53.46322 68.575736 53.575736 
C 68.46322 53.688252 68.4 53.840878 68.4 54 
C 68.4 54.159122 68.46322 54.311748 68.575736 54.424264 
C 68.688252 54.53678 68.840878 54.6 69 54.6 
z
M 0 48.6 
C 0.159122 48.6 0.311748 48.53678 0.424264 48.424264 
C 0.53678 48.311748 0.6 48.159122 0.6 48 
C 0.6 47.840878 0.53678 47.688252 0.424264 47.575736 
C 0.311748 47.46322 0.159122 47.4 0 47.4 
C -0.159122 47.4 -0.311748 47.46322 -0.424264 47.575736 
C -0.53678 47.688252 -0.6 47.840878 -0.6 48 
C -0.6 48.159122 -0.53678 48.311748 -0.424264 48.424264 
C -0.311748 48.53678 -0.159122 48.6 0 48.6 
z
M 6 48.6 
C 6.159122 48.6 6.311748 48.53678 6.424264 48.424264 
C 6.53678 48.311748 6.6 48.159122 6.6 48 
C 6.6 47.840878 6.53678 47.688252 6.424264 47.575736 
C 6.311748 47.46322 6.159122 47.4 6 47.4 
C 5.840878 47.4 5.688252 47.46322 5.575736 47.575736 
C 5.46322 47.688252 5.4 47.840878 5.4 48 
C 5.4 48.159122 5.46322 48.311748 5.575736 48.424264 
C 5.688252 48.53678 5.840878 48.6 6 48.6 
z
M 12 48.6 
C 12.159122 48.6 12.311748 48.53678 12.424264 48.424264 
C 12.53678 48.311748 12.6 48.159122 12.6 48 
C 12.6 47.840878 12.53678 47.688252 12.424264 47.575736 
C 12.311748 47.46322 12.159122 47.4 12 47.4 
C 11.840878 47.4 11.688252 47.46322 11.575736 47.575736 
C 11.46322 47.688252 11.4 47.840878 11.4 48 
C 11.4 48.159122 11.46322 48.311748 11.575736 48.424264 
C 11.688252 48.53678 11.840878 48.6 12 48.6 
z
M 18 48.6 
C 18.159122 48.6 18.311748 48.53678 18.424264 48.424264 
C 18.53678 48.311748 18.6 48.159122 18.6 48 
C 18.6 47.840878 18.53678 47.688252 18.424264 47.575736 
C 18.311748 47.46322 18.159122 47.4 18 47.4 
C 17.840878 47.4 17.688252 47.46322 17.575736 47.575736 
C 17.46322 47.688252 17.4 47.840878 17.4 48 
C 17.4 48.159122 17.46322 48.311748 17.575736 48.424264 
C 17.688252 48.53678 17.840878 48.6 18 48.6 
z
M 24 48.6 
C 24.159122 48.6 24.311748 48.53678 24.424264 48.424264 
C 24.53678 48.311748 24.6 48.159122 24.6 48 
C 24.6 47.840878 24.53678 47.688252 24.424264 47.575736 
C 24.311748 47.46322 24.159122 47.4 24 47.4 
C 23.840878 47.4 23.688252 47.46322 23.575736 47.575736 
C 23.46322 47.688252 23.4 47.840878 23.4 48 
C 23.4 48.159122 23.46322 48.311748 23.575736 48.424264 
C 23.688252 48.53678 23.840878 48.6 24 48.6 
z
M 30 48.6 
C 30.159122 48.6 30.311748 48.53678 30.424264 48.424264 
C 30.53678 48.311748 30.6 48.159122 30.6 48 
C 30.6 47.840878 30.53678 47.688252 30.424264 47.575736 
C 30.311748 47.46322 30.159122 47.4 30 47.4 
C 29.840878 47.4 29.688252 47.46322 29.575736 47.575736 
C 29.46322 47.688252 29.4 47.840878 29.4 48 
C 29.4 48.159122 29.46322 48.311748 29.575736 48.424264 
C 29.688252 48.53678 29.840878 48.6 30 48.6 
z
M 36 48.6 
C 36.159122 48.6 36.311748 48.53678 36.424264 48.424264 
C 36.53678 48.311748 36.6 48.159122 36.6 48 
C 36.6 47.840878 36.53678 47.688252 36.424264 47.575736 
C 36.311748 47.46322 36.159122 47.4 36 47.4 
C 35.840878 47.4 35.688252 47.46322 35.575736 47.575736 
C 35.46322 47.688252 35.4 47.840878 35.4 48 
C 35.4 48.159122 35.46322 48.311748 35.575736 48.424264 
C 35.688252 48.53678 35.840878 48.6 36 48.6 
z
M 42 48.6 
C 42.159122 48.6 42.311748 48.53678 42.424264 48.424264 
C 42.53678 48.311748 42.6 48.159122 42.6 48 
C 42.6 47.840878 42.53678 47.688252 42.424264 47.575736 
C 42.311748 47.46322 42.159122 47.4 42 47.4 
C 41.840878 47.4 41.688252 47.46322 41.575736 47.575736 
C 41.46322 47.688252 41.4 47.840878 41.4 48 
C 41.4 48.159122 41.46322 48.311748 41.575736 48.424264 
C 41.688252 48.53678 41.840878 48.6 42 48.6 
z
M 48 48.6 
C 48.159122 48.6 48.311748 48.53678 48.424264 48.424264 
C 48.53678 48.311748 48.6 48.159122 48.6 48 
C 48.6 47.840878 48.53678 47.688252 48.424264 47.575736 
C 48.311748 47.46322 48.159122 47.4 48 47.4 
C 47.840878 47.4 47.688252 47.46322 47.575736 47.575736 
C 47.46322 47.688252 47.4 47.840878 47.4 48 
C 47.4 48.159122 47.46322 48.311748 47.575736 48.424264 
C 47.688252 48.53678 47.840878 48.6 48 48.6 
z
M 54 48.6 
C 54.159122 48.6 54.311748 48.53678 54.424264 48.424264 
C 54.53678 48.311748 54.6 48.159122 54.6 48 
C 54.6 47.840878 54.53678 47.688252 54.424264 47.575736 
C 54.311748 47.46322 54.159122 47.4 54 47.4 
C 53.840878 47.4 53.688252 47.46322 53.575736 47.575736 
C 53.46322 47.688252 53.4 47.840878 53.4 48 
C 53.4 48.159122 53.46322 48.311748 53.575736 48.424264 
C 53.688252 48.53678 53.840878 48.6 54 48.6 
z
M 60 48.6 
C 60.159122 48.6 60.311748 48.53678 60.424264 48.424264 
C 60.53678 48.311748 60.6 48.159122 60.6 48 
C 60.6 47.840878 60.53678 47.688252 60.424264 47.575736 
C 60.311748 47.46322 60.159122 47.4 60 47.4 
C 59.840878 47.4 59.688252 47.46322 59.575736 47.575736 
C 59.46322 47.688252 59.4 47.840878 59.4 48 
C 59.4 48.159122 59.46322 48.311748 59.575736 48.424264 
C 59.688252 48.53678 59.840878 48.6 60 48.6 
z
M 66 48.6 
C 66.159122 48.6 66.311748 48.53678 66.424264 48.424264 
C 66.53678 48.311748 66.6 48.159122 66.6 48 
C 66.6 47.840878 66.53678 47.688252 66.424264 47.575736 
C 66.311748 47.46322 66.159122 47.4 66 47.4 
C 65.840878 47.4 65.688252 47.46322 65.575736 47.575736 
C 65.46322 47.688252 65.4 47.840878 65.4 48 
C 65.4 48.159122 65.46322 48.311748 65.575736 48.424264 
C 65.688252 48.53678 65.840878 48.6 66 48.6 
z
M 72 48.6 
C 72.159122 48.6 72.311748 48.53678 72.424264 48.424264 
C 72.53678 48.311748 72.6 48.159122 72.6 48 
C 72.6 47.840878 72.53678 47.688252 72.424264 47.575736 
C 72.311748 47.46322 72.159122 47.4 72 47.4 
C 71.840878 47.4 71.688252 47.46322 71.575736 47.575736 
C 71.46322 47.688252 71.4 47.840878 71.4 48 
C 71.4 48.159122 71.46322 48.311748 71.575736 48.424264 
C 71.688252 48.53678 71.840878 48.6 72 48.6 
z
M 3 42.6 
C 3.159122 42.6 3.311748 42.53678 3.424264 42.424264 
C 3.53678 42.311748 3.6 42.159122 3.6 42 
C 3.6 41.840878 3.53678 41.688252 3.424264 41.575736 
C 3.311748 41.46322 3.159122 41.4 3 41.4 
C 2.840878 41.4 2.688252 41.46322 2.575736 41.575736 
C 2.46322 41.688252 2.4 41.840878 2.4 42 
C 2.4 42.159122 2.46322 42.311748 2.575736 42.424264 
C 2.688252 42.53678 2.840878 42.6 3 42.6 
z
M 9 42.6 
C 9.159122 42.6 9.311748 42.53678 9.424264 42.424264 
C 9.53678 42.311748 9.6 42.159122 9.6 42 
C 9.6 41.840878 9.53678 41.688252 9.424264 41.575736 
C 9.311748 41.46322 9.159122 41.4 9 41.4 
C 8.840878 41.4 8.688252 41.46322 8.575736 41.575736 
C 8.46322 41.688252 8.4 41.840878 8.4 42 
C 8.4 42.159122 8.46322 42.311748 8.575736 42.424264 
C 8.688252 42.53678 8.840878 42.6 9 42.6 
z
M 15 42.6 
C 15.159122 42.6 15.311748 42.53678 15.424264 42.424264 
C 15.53678 42.311748 15.6 42.159122 15.6 42 
C 15.6 41.840878 15.53678 41.688252 15.424264 41.575736 
C 15.311748 41.46322 15.159122 41.4 15 41.4 
C 14.840878 41.4 14.688252 41.46322 14.575736 41.575736 
C 14.46322 41.688252 14.4 41.840878 14.4 42 
C 14.4 42.159122 14.46322 42.311748 14.575736 42.424264 
C 14.688252 42.53678 14.840878 42.6 15 42.6 
z
M 21 42.6 
C 21.159122 42.6 21.311748 42.53678 21.424264 42.424264 
C 21.53678 42.311748 21.6 42.159122 21.6 42 
C 21.6 41.840878 21.53678 41.688252 21.424264 41.575736 
C 21.311748 41.46322 21.159122 41.4 21 41.4 
C 20.840878 41.4 20.688252 41.46322 20.575736 41.575736 
C 20.46322 41.688252 20.4 41.840878 20.4 42 
C 20.4 42.159122 20.46322 42.311748 20.575736 42.424264 
C 20.688252 42.53678 20.840878 42.6 21 42.6 
z
M 27 42.6 
C 27.159122 42.6 27.311748 42.53678 27.424264 42.424264 
C 27.53678 42.311748 27.6 42.159122 27.6 42 
C 27.6 41.840878 27.53678 41.688252 27.424264 41.575736 
C 27.311748 41.46322 27.159122 41.4 27 41.4 
C 26.840878 41.4 26.688252 41.46322 26.575736 41.575736 
C 26.46322 41.688252 26.4 41.840878 26.4 42 
C 26.4 42.159122 26.46322 42.311748 26.575736 42.424264 
C 26.688252 42.53678 26.840878 42.6 27 42.6 
z
M 33 42.6 
C 33.159122 42.6 33.311748 42.53678 33.424264 42.424264 
C 33.53678 42.311748 33.6 42.159122 33.6 42 
C 33.6 41.840878 33.53678 41.688252 33.424264 41.575736 
C 33.311748 41.46322 33.159122 41.4 33 41.4 
C 32.840878 41.4 32.688252 41.46322 32.575736 41.575736 
C 32.46322 41.688252 32.4 41.840878 32.4 42 
C 32.4 42.159122 32.46322 42.311748 32.575736 42.424264 
C 32.688252 42.53678 32.840878 42.6 33 42.6 
z
M 39 42.6 
C 39.159122 42.6 39.311748 42.53678 39.424264 42.424264 
C 39.53678 42.311748 39.6 42.159122 39.6 42 
C 39.6 41.840878 39.53678 41.688252 39.424264 41.575736 
C 39.311748 41.46322 39.159122 41.4 39 41.4 
C 38.840878 41.4 38.688252 41.46322 38.575736 41.575736 
C 38.46322 41.688252 38.4 41.840878 38.4 42 
C 38.4 42.159122 38.46322 42.311748 38.575736 42.424264 
C 38.688252 42.53678 38.840878 42.6 39 42.6 
z
M 45 42.6 
C 45.159122 42.6 45.311748 42.53678 45.424264 42.424264 
C 45.53678 42.311748 45.6 42.159122 45.6 42 
C 45.6 41.840878 45.53678 41.688252 45.424264 41.575736 
C 45.311748 41.46322 45.159122 41.4 45 41.4 
C 44.840878 41.4 44.688252 41.46322 44.575736 41.575736 
C 44.46322 41.688252 44.4 41.840878 44.4 42 
C 44.4 42.159122 44.46322 42.311748 44.575736 42.424264 
C 44.688252 42.53678 44.840878 42.6 45 42.6 
z
M 51 42.6 
C 51.159122 42.6 51.311748 42.53678 51.424264 42.424264 
C 51.53678 42.311748 51.6 42.159122 51.6 42 
C 51.6 41.840878 51.53678 41.688252 51.424264 41.575736 
C 51.311748 41.46322 51.159122 41.4 51 41.4 
C 50.840878 41.4 50.688252 41.46322 50.575736 41.575736 
C 50.46322 41.688252 50.4 41.840878 50.4 42 
C 50.4 42.159122 50.46322 42.311748 50.575736 42.424264 
C 50.688252 42.53678 50.840878 42.6 51 42.6 
z
M 57 42.6 
C 57.159122 42.6 57.311748 42.53678 57.424264 42.424264 
C 57.53678 42.311748 57.6 42.159122 57.6 42 
C 57.6 41.840878 57.53678 41.688252 57.424264 41.575736 
C 57.311748 41.46322 57.159122 41.4 57 41.4 
C 56.840878 41.4 56.688252 41.46322 56.575736 41.575736 
C 56.46322 41.688252 56.4 41.840878 56.4 42 
C 56.4 42.159122 56.46322 42.311748 56.575736 42.424264 
C 56.688252 42.53678 56.840878 42.6 57 42.6 
z
M 63 42.6 
C 63.159122 42.6 63.311748 42.53678 63.424264 42.424264 
C 63.53678 42.311748 63.6 42.159122 63.6 42 
C 63.6 41.840878 63.53678 41.688252 63.424264 41.575736 
C 63.311748 41.46322 63.159122 41.4 63 41.4 
C 62.840878 41.4 62.688252 41.46322 62.575736 41.575736 
C 62.46322 41.688252 62.4 41.840878 62.4 42 
C 62.4 42.159122 62.46322 42.311748 62.575736 42.424264 
C 62.688252 42.53678 62.840878 42.6 63 42.6 
z
M 69 42.6 
C 69.159122 42.6 69.311748 42.53678 69.424264 42.424264 
C 69.53678 42.311748 69.6 42.159122 69.6 42 
C 69.6 41.840878 69.53678 41.688252 69.424264 41.575736 
C 69.311748 41.46322 69.159122 41.4 69 41.4 
C 68.840878 41.4 68.688252 41.46322 68.575736 41.575736 
C 68.46322 41.688252 68.4 41.840878 68.4 42 
C 68.4 42.159122 68.46322 42.311748 68.575736 42.424264 
C 68.688252 42.53678 68.840878 42.6 69 42.6 
z
M 0 36.6 
C 0.159122 36.6 0.311748 36.53678 0.424264 36.424264 
C 0.53678 36.311748 0.6 36.159122 0.6 36 
C 0.6 35.840878 0.53678 35.688252 0.424264 35.575736 
C 0.311748 35.46322 0.159122 35.4 0 35.4 
C -0.159122 35.4 -0.311748 35.46322 -0.424264 35.575736 
C -0.53678 35.688252 -0.6 35.840878 -0.6 36 
C -0.6 36.159122 -0.53678 36.311748 -0.424264 36.424264 
C -0.311748 36.53678 -0.159122 36.6 0 36.6 
z
M 6 36.6 
C 6.159122 36.6 6.311748 36.53678 6.424264 36.424264 
C 6.53678 36.311748 6.6 36.159122 6.6 36 
C 6.6 35.840878 6.53678 35.688252 6.424264 35.575736 
C 6.311748 35.46322 6.159122 35.4 6 35.4 
C 5.840878 35.4 5.688252 35.46322 5.575736 35.575736 
C 5.46322 35.688252 5.4 35.840878 5.4 36 
C 5.4 36.159122 5.46322 36.311748 5.575736 36.424264 
C 5.688252 36.53678 5.840878 36.6 6 36.6 
z
M 12 36.6 
C 12.159122 36.6 12.311748 36.53678 12.424264 36.424264 
C 12.53678 36.311748 12.6 36.159122 12.6 36 
C 12.6 35.840878 12.53678 35.688252 12.424264 35.575736 
C 12.311748 35.46322 12.159122 35.4 12 35.4 
C 11.840878 35.4 11.688252 35.46322 11.575736 35.575736 
C 11.46322 35.688252 11.4 35.840878 11.4 36 
C 11.4 36.159122 11.46322 36.311748 11.575736 36.424264 
C 11.688252 36.53678 11.840878 36.6 12 36.6 
z
M 18 36.6 
C 18.159122 36.6 18.311748 36.53678 18.424264 36.424264 
C 18.53678 36.311748 18.6 36.159122 18.6 36 
C 18.6 35.840878 18.53678 35.688252 18.424264 35.575736 
C 18.311748 35.46322 18.159122 35.4 18 35.4 
C 17.840878 35.4 17.688252 35.46322 17.575736 35.575736 
C 17.46322 35.688252 17.4 35.840878 17.4 36 
C 17.4 36.159122 17.46322 36.311748 17.575736 36.424264 
C 17.688252 36.53678 17.840878 36.6 18 36.6 
z
M 24 36.6 
C 24.159122 36.6 24.311748 36.53678 24.424264 36.424264 
C 24.53678 36.311748 24.6 36.159122 24.6 36 
C 24.6 35.840878 24.53678 35.688252 24.424264 35.575736 
C 24.311748 35.46322 24.159122 35.4 24 35.4 
C 23.840878 35.4 23.688252 35.46322 23.575736 35.575736 
C 23.46322 35.688252 23.4 35.840878 23.4 36 
C 23.4 36.159122 23.46322 36.311748 23.575736 36.424264 
C 23.688252 36.53678 23.840878 36.6 24 36.6 
z
M 30 36.6 
C 30.159122 36.6 30.311748 36.53678 30.424264 36.424264 
C 30.53678 36.311748 30.6 36.159122 30.6 36 
C 30.6 35.840878 30.53678 35.688252 30.424264 35.575736 
C 30.311748 35.46322 30.159122 35.4 30 35.4 
C 29.840878 35.4 29.688252 35.46322 29.575736 35.575736 
C 29.46322 35.688252 29.4 35.840878 29.4 36 
C 29.4 36.159122 29.46322 36.311748 29.575736 36.424264 
C 29.688252 36.53678 29.840878 36.6 30 36.6 
z
M 36 36.6 
C 36.159122 36.6 36.311748 36.53678 36.424264 36.424264 
C 36.53678 36.311748 36.6 36.159122 36.6 36 
C 36.6 35.840878 36.53678 35.688252 36.424264 35.575736 
C 36.311748 35.46322 36.159122 35.4 36 35.4 
C 35.840878 35.4 35.688252 35.46322 35.575736 35.575736 
C 35.46322 35.688252 35.4 35.840878 35.4 36 
C 35.4 36.159122 35.46322 36.311748 35.575736 36.424264 
C 35.688252 36.53678 35.840878 36.6 36 36.6 
z
M 42 36.6 
C 42.159122 36.6 42.311748 36.53678 42.424264 36.424264 
C 42.53678 36.311748 42.6 36.159122 42.6 36 
C 42.6 35.840878 42.53678 35.688252 42.424264 35.575736 
C 42.311748 35.46322 42.159122 35.4 42 35.4 
C 41.840878 35.4 41.688252 35.46322 41.575736 35.575736 
C 41.46322 35.688252 41.4 35.840878 41.4 36 
C 41.4 36.159122 41.46322 36.311748 41.575736 36.424264 
C 41.688252 36.53678 41.840878 36.6 42 36.6 
z
M 48 36.6 
C 48.159122 36.6 48.311748 36.53678 48.424264 36.424264 
C 48.53678 36.311748 48.6 36.159122 48.6 36 
C 48.6 35.840878 48.53678 35.688252 48.424264 35.575736 
C 48.311748 35.46322 48.159122 35.4 48 35.4 
C 47.840878 35.4 47.688252 35.46322 47.575736 35.575736 
C 47.46322 35.688252 47.4 35.840878 47.4 36 
C 47.4 36.159122 47.46322 36.311748 47.575736 36.424264 
C 47.688252 36.53678 47.840878 36.6 48 36.6 
z
M 54 36.6 
C 54.159122 36.6 54.311748 36.53678 54.424264 36.424264 
C 54.53678 36.311748 54.6 36.159122 54.6 36 
C 54.6 35.840878 54.53678 35.688252 54.424264 35.575736 
C 54.311748 35.46322 54.159122 35.4 54 35.4 
C 53.840878 35.4 53.688252 35.46322 53.575736 35.575736 
C 53.46322 35.688252 53.4 35.840878 53.4 36 
C 53.4 36.159122 53.46322 36.311748 53.575736 36.424264 
C 53.688252 36.53678 53.840878 36.6 54 36.6 
z
M 60 36.6 
C 60.159122 36.6 60.311748 36.53678 60.424264 36.424264 
C 60.53678 36.311748 60.6 36.159122 60.6 36 
C 60.6 35.840878 60.53678 35.688252 60.424264 35.575736 
C 60.311748 35.46322 60.159122 35.4 60 35.4 
C 59.840878 35.4 59.688252 35.46322 59.575736 35.575736 
C 59.46322 35.688252 59.4 35.840878 59.4 36 
C 59.4 36.159122 59.46322 36.311748 59.575736 36.424264 
C 59.688252 36.53678 59.840878 36.6 60 36.6 
z
M 66 36.6 
C 66.159122 36.6 66.311748 36.53678 66.424264 36.424264 
C 66.53678 36.311748 66.6 36.159122 66.6 36 
C 66.6 35.840878 66.53678 35.688252 66.424264 35.575736 
C 66.311748 35.46322 66.159122 35.4 66 35.4 
C 65.840878 35.4 65.688252 35.46322 65.575736 35.575736 
C 65.46322 35.688252 65.4 35.840878 65.4 36 
C 65.4 36.159122 65.46322 36.311748 65.575736 36.424264 
C 65.688252 36.53678 65.840878 36.6 66 36.6 
z
M 72 36.6 
C 72.159122 36.6 72.311748 36.53678 72.424264 36.424264 
C 72.53678 36.311748 72.6 36.159122 72.6 36 
C 72.6 35.840878 72.53678 35.688252 72.424264 35.575736 
C 72.311748 35.46322 72.159122 35.4 72 35.4 
C 71.840878 35.4 71.688252 35.46322 71.575736 35.575736 
C 71.46322 35.688252 71.4 35.840878 71.4 36 
C 71.4 36.159122 71.46322 36.311748 71.575736 36.424264 
C 71.688252 36.53678 71.840878 36.6 72 36.6 
z
M 3 30.6 
C 3.159122 30.6 3.311748 30.53678 3.424264 30.424264 
C 3.53678 30.311748 3.6 30.159122 3.6 30 
C 3.6 29.840878 3.53678 29.688252 3.424264 29.575736 
C 3.311748 29.46322 3.159122 29.4 3 29.4 
C 2.840878 29.4 2.688252 29.46322 2.575736 29.575736 
C 2.46322 29.688252 2.4 29.840878 2.4 30 
C 2.4 30.159122 2.46322 30.311748 2.575736 30.424264 
C 2.688252 30.53678 2.840878 30.6 3 30.6 
z
M 9 30.6 
C 9.159122 30.6 9.311748 30.53678 9.424264 30.424264 
C 9.53678 30.311748 9.6 30.159122 9.6 30 
C 9.6 29.840878 9.53678 29.688252 9.424264 29.575736 
C 9.311748 29.46322 9.159122 29.4 9 29.4 
C 8.840878 29.4 8.688252 29.46322 8.575736 29.575736 
C 8.46322 29.688252 8.4 29.840878 8.4 30 
C 8.4 30.159122 8.46322 30.311748 8.575736 30.424264 
C 8.688252 30.53678 8.840878 30.6 9 30.6 
z
M 15 30.6 
C 15.159122 30.6 15.311748 30.53678 15.424264 30.424264 
C 15.53678 30.311748 15.6 30.159122 15.6 30 
C 15.6 29.840878 15.53678 29.688252 15.424264 29.575736 
C 15.311748 29.46322 15.159122 29.4 15 29.4 
C 14.840878 29.4 14.688252 29.46322 14.575736 29.575736 
C 14.46322 29.688252 14.4 29.840878 14.4 30 
C 14.4 30.159122 14.46322 30.311748 14.575736 30.424264 
C 14.688252 30.53678 14.840878 30.6 15 30.6 
z
M 21 30.6 
C 21.159122 30.6 21.311748 30.53678 21.424264 30.424264 
C 21.53678 30.311748 21.6 30.159122 21.6 30 
C 21.6 29.840878 21.53678 29.688252 21.424264 29.575736 
C 21.311748 29.46322 21.159122 29.4 21 29.4 
C 20.840878 29.4 20.688252 29.46322 20.575736 29.575736 
C 20.46322 29.688252 20.4 29.840878 20.4 30 
C 20.4 30.159122 20.46322 30.311748 20.575736 30.424264 
C 20.688252 30.53678 20.840878 30.6 21 30.6 
z
M 27 30.6 
C 27.159122 30.6 27.311748 30.53678 27.424264 30.424264 
C 27.53678 30.311748 27.6 30.159122 27.6 30 
C 27.6 29.840878 27.53678 29.688252 27.424264 29.575736 
C 27.311748 29.46322 27.159122 29.4 27 29.4 
C 26.840878 29.4 26.688252 29.46322 26.575736 29.575736 
C 26.46322 29.688252 26.4 29.840878 26.4 30 
C 26.4 30.159122 26.46322 30.311748 26.575736 30.424264 
C 26.688252 30.53678 26.840878 30.6 27 30.6 
z
M 33 30.6 
C 33.159122 30.6 33.311748 30.53678 33.424264 30.424264 
C 33.53678 30.311748 33.6 30.159122 33.6 30 
C 33.6 29.840878 33.53678 29.688252 33.424264 29.575736 
C 33.311748 29.46322 33.159122 29.4 33 29.4 
C 32.840878 29.4 32.688252 29.46322 32.575736 29.575736 
C 32.46322 29.688252 32.4 29.840878 32.4 30 
C 32.4 30.159122 32.46322 30.311748 32.575736 30.424264 
C 32.688252 30.53678 32.840878 30.6 33 30.6 
z
M 39 30.6 
C 39.159122 30.6 39.311748 30.53678 39.424264 30.424264 
C 39.53678 30.311748 39.6 30.159122 39.6 30 
C 39.6 29.840878 39.53678 29.688252 39.424264 29.575736 
C 39.311748 29.46322 39.159122 29.4 39 29.4 
C 38.840878 29.4 38.688252 29.46322 38.575736 29.575736 
C 38.46322 29.688252 38.4 29.840878 38.4 30 
C 38.4 30.159122 38.46322 30.311748 38.575736 30.424264 
C 38.688252 30.53678 38.840878 30.6 39 30.6 
z
M 45 30.6 
C 45.159122 30.6 45.311748 30.53678 45.424264 30.424264 
C 45.53678 30.311748 45.6 30.159122 45.6 30 
C 45.6 29.840878 45.53678 29.688252 45.424264 29.575736 
C 45.311748 29.46322 45.159122 29.4 45 29.4 
C 44.840878 29.4 44.688252 29.46322 44.575736 29.575736 
C 44.46322 29.688252 44.4 29.840878 44.4 30 
C 44.4 30.159122 44.46322 30.311748 44.575736 30.424264 
C 44.688252 30.53678 44.840878 30.6 45 30.6 
z
M 51 30.6 
C 51.159122 30.6 51.311748 30.53678 51.424264 30.424264 
C 51.53678 30.311748 51.6 30.159122 51.6 30 
C 51.6 29.840878 51.53678 29.688252 51.424264 29.575736 
C 51.311748 29.46322 51.159122 29.4 51 29.4 
C 50.840878 29.4 50.688252 29.46322 50.575736 29.575736 
C 50.46322 29.688252 50.4 29.840878 50.4 30 
C 50.4 30.159122 50.46322 30.311748 50.575736 30.424264 
C 50.688252 30.53678 50.840878 30.6 51 30.6 
z
M 57 30.6 
C 57.159122 30.6 57.311748 30.53678 57.424264 30.424264 
C 57.53678 30.311748 57.6 30.159122 57.6 30 
C 57.6 29.840878 57.53678 29.688252 57.424264 29.575736 
C 57.311748 29.46322 57.159122 29.4 57 29.4 
C 56.840878 29.4 56.688252 29.46322 56.575736 29.575736 
C 56.46322 29.688252 56.4 29.840878 56.4 30 
C 56.4 30.159122 56.46322 30.311748 56.575736 30.424264 
C 56.688252 30.53678 56.840878 30.6 57 30.6 
z
M 63 30.6 
C 63.159122 30.6 63.311748 30.53678 63.424264 30.424264 
C 63.53678 30.311748 63.6 30.159122 63.6 30 
C 63.6 29.840878 63.53678 29.688252 63.424264 29.575736 
C 63.311748 29.46322 63.159122 29.4 63 29.4 
C 62.840878 29.4 62.688252 29.46322 62.575736 29.575736 
C 62.46322 29.688252 62.4 29.840878 62.4 30 
C 62.4 30.159122 62.46322 30.311748 62.575736 30.424264 
C 62.688252 30.53678 62.840878 30.6 63 30.6 
z
M 69 30.6 
C 69.159122 30.6 69.311748 30.53678 69.424264 30.424264 
C 69.53678 30.311748 69.6 30.159122 69.6 30 
C 69.6 29.840878 69.53678 29.688252 69.424264 29.575736 
C 69.311748 29.46322 69.159122 29.4 69 29.4 
C 68.840878 29.4 68.688252 29.46322 68.575736 29.575736 
C 68.46322 29.688252 68.4 29.840878 68.4 30 
C 68.4 30.159122 68.46322 30.311748 68.575736 30.424264 
C 68.688252 30.53678 68.840878 30.6 69 30.6 
z
M 0 24.6 
C 0.159122 24.6 0.311748 24.53678 0.424264 24.424264 
C 0.53678 24.311748 0.6 24.159122 0.6 24 
C 0.6 23.840878 0.53678 23.688252 0.424264 23.575736 
C 0.311748 23.46322 0.159122 23.4 0 23.4 
C -0.159122 23.4 -0.311748 23.46322 -0.424264 23.575736 
C -0.53678 23.688252 -0.6 23.840878 -0.6 24 
C -0.6 24.159122 -0.53678 24.311748 -0.424264 24.424264 
C -0.311748 24.53678 -0.159122 24.6 0 24.6 
z
M 6 24.6 
C 6.159122 24.6 6.311748 24.53678 6.424264 24.424264 
C 6.53678 24.311748 6.6 24.159122 6.6 24 
C 6.6 23.840878 6.53678 23.688252 6.424264 23.575736 
C 6.311748 23.46322 6.159122 23.4 6 23.4 
C 5.840878 23.4 5.688252 23.46322 5.575736 23.575736 
C 5.46322 23.688252 5.4 23.840878 5.4 24 
C 5.4 24.159122 5.46322 24.311748 5.575736 24.424264 
C 5.688252 24.53678 5.840878 24.6 6 24.6 
z
M 12 24.6 
C 12.159122 24.6 12.311748 24.53678 12.424264 24.424264 
C 12.53678 24.311748 12.6 24.159122 12.6 24 
C 12.6 23.840878 12.53678 23.688252 12.424264 23.575736 
C 12.311748 23.46322 12.159122 23.4 12 23.4 
C 11.840878 23.4 11.688252 23.46322 11.575736 23.575736 
C 11.46322 23.688252 11.4 23.840878 11.4 24 
C 11.4 24.159122 11.46322 24.311748 11.575736 24.424264 
C 11.688252 24.53678 11.840878 24.6 12 24.6 
z
M 18 24.6 
C 18.159122 24.6 18.311748 24.53678 18.424264 24.424264 
C 18.53678 24.311748 18.6 24.159122 18.6 24 
C 18.6 23.840878 18.53678 23.688252 18.424264 23.575736 
C 18.311748 23.46322 18.159122 23.4 18 23.4 
C 17.840878 23.4 17.688252 23.46322 17.575736 23.575736 
C 17.46322 23.688252 17.4 23.840878 17.4 24 
C 17.4 24.159122 17.46322 24.311748 17.575736 24.424264 
C 17.688252 24.53678 17.840878 24.6 18 24.6 
z
M 24 24.6 
C 24.159122 24.6 24.311748 24.53678 24.424264 24.424264 
C 24.53678 24.311748 24.6 24.159122 24.6 24 
C 24.6 23.840878 24.53678 23.688252 24.424264 23.575736 
C 24.311748 23.46322 24.159122 23.4 24 23.4 
C 23.840878 23.4 23.688252 23.46322 23.575736 23.575736 
C 23.46322 23.688252 23.4 23.840878 23.4 24 
C 23.4 24.159122 23.46322 24.311748 23.575736 24.424264 
C 23.688252 24.53678 23.840878 24.6 24 24.6 
z
M 30 24.6 
C 30.159122 24.6 30.311748 24.53678 30.424264 24.424264 
C 30.53678 24.311748 30.6 24.159122 30.6 24 
C 30.6 23.840878 30.53678 23.688252 30.424264 23.575736 
C 30.311748 23.46322 30.159122 23.4 30 23.4 
C 29.840878 23.4 29.688252 23.46322 29.575736 23.575736 
C 29.46322 23.688252 29.4 23.840878 29.4 24 
C 29.4 24.159122 29.46322 24.311748 29.575736 24.424264 
C 29.688252 24.53678 29.840878 24.6 30 24.6 
z
M 36 24.6 
C 36.159122 24.6 36.311748 24.53678 36.424264 24.424264 
C 36.53678 24.311748 36.6 24.159122 36.6 24 
C 36.6 23.840878 36.53678 23.688252 36.424264 23.575736 
C 36.311748 23.46322 36.159122 23.4 36 23.4 
C 35.840878 23.4 35.688252 23.46322 35.575736 23.575736 
C 35.46322 23.688252 35.4 23.840878 35.4 24 
C 35.4 24.159122 35.46322 24.311748 35.575736 24.424264 
C 35.688252 24.53678 35.840878 24.6 36 24.6 
z
M 42 24.6 
C 42.159122 24.6 42.311748 24.53678 42.424264 24.424264 
C 42.53678 24.311748 42.6 24.159122 42.6 24 
C 42.6 23.840878 42.53678 23.688252 42.424264 23.575736 
C 42.311748 23.46322 42.159122 23.4 42 23.4 
C 41.840878 23.4 41.688252 23.46322 41.575736 23.575736 
C 41.46322 23.688252 41.4 23.840878 41.4 24 
C 41.4 24.159122 41.46322 24.311748 41.575736 24.424264 
C 41.688252 24.53678 41.840878 24.6 42 24.6 
z
M 48 24.6 
C 48.159122 24.6 48.311748 24.53678 48.424264 24.424264 
C 48.53678 24.311748 48.6 24.159122 48.6 24 
C 48.6 23.840878 48.53678 23.688252 48.424264 23.575736 
C 48.311748 23.46322 48.159122 23.4 48 23.4 
C 47.840878 23.4 47.688252 23.46322 47.575736 23.575736 
C 47.46322 23.688252 47.4 23.840878 47.4 24 
C 47.4 24.159122 47.46322 24.311748 47.575736 24.424264 
C 47.688252 24.53678 47.840878 24.6 48 24.6 
z
M 54 24.6 
C 54.159122 24.6 54.311748 24.53678 54.424264 24.424264 
C 54.53678 24.311748 54.6 24.159122 54.6 24 
C 54.6 23.840878 54.53678 23.688252 54.424264 23.575736 
C 54.311748 23.46322 54.159122 23.4 54 23.4 
C 53.840878 23.4 53.688252 23.46322 53.575736 23.575736 
C 53.46322 23.688252 53.4 23.840878 53.4 24 
C 53.4 24.159122 53.46322 24.311748 53.575736 24.424264 
C 53.688252 24.53678 53.840878 24.6 54 24.6 
z
M 60 24.6 
C 60.159122 24.6 60.311748 24.53678 60.424264 24.424264 
C 60.53678 24.311748 60.6 24.159122 60.6 24 
C 60.6 23.840878 60.53678 23.688252 60.424264 23.575736 
C 60.311748 23.46322 60.159122 23.4 60 23.4 
C 59.840878 23.4 59.688252 23.46322 59.575736 23.575736 
C 59.46322 23.688252 59.4 23.840878 59.4 24 
C 59.4 24.159122 59.46322 24.311748 59.575736 24.424264 
C 59.688252 24.53678 59.840878 24.6 60 24.6 
z
M 66 24.6 
C 66.159122 24.6 66.311748 24.53678 66.424264 24.424264 
C 66.53678 24.311748 66.6 24.159122 66.6 24 
C 66.6 23.840878 66.53678 23.688252 66.424264 23.575736 
C 66.311748 23.46322 66.159122 23.4 66 23.4 
C 65.840878 23.4 65.688252 23.46322 65.575736 23.575736 
C 65.46322 23.688252 65.4 23.840878 65.4 24 
C 65.4 24.159122 65.46322 24.311748 65.575736 24.424264 
C 65.688252 24.53678 65.840878 24.6 66 24.6 
z
M 72 24.6 
C 72.159122 24.6 72.311748 24.53678 72.424264 24.424264 
C 72.53678 24.311748 72.6 24.159122 72.6 24 
C 72.6 23.840878 72.53678 23.688252 72.424264 23.575736 
C 72.311748 23.46322 72.159122 23.4 72 23.4 
C 71.840878 23.4 71.688252 23.46322 71.575736 23.575736 
C 71.46322 23.688252 71.4 23.840878 71.4 24 
C 71.4 24.159122 71.46322 24.311748 71.575736 24.424264 
C 71.688252 24.53678 71.840878 24.6 72 24.6 
z
M 3 18.6 
C 3.159122 18.6 3.311748 18.53678 3.424264 18.424264 
C 3.53678 18.311748 3.6 18.159122 3.6 18 
C 3.6 17.840878 3.53678 17.688252 3.424264 17.575736 
C 3.311748 17.46322 3.159122 17.4 3 17.4 
C 2.840878 17.4 2.688252 17.46322 2.575736 17.575736 
C 2.46322 17.688252 2.4 17.840878 2.4 18 
C 2.4 18.159122 2.46322 18.311748 2.575736 18.424264 
C 2.688252 18.53678 2.840878 18.6 3 18.6 
z
M 9 18.6 
C 9.159122 18.6 9.311748 18.53678 9.424264 18.424264 
C 9.53678 18.311748 9.6 18.159122 9.6 18 
C 9.6 17.840878 9.53678 17.688252 9.424264 17.575736 
C 9.311748 17.46322 9.159122 17.4 9 17.4 
C 8.840878 17.4 8.688252 17.46322 8.575736 17.575736 
C 8.46322 17.688252 8.4 17.840878 8.4 18 
C 8.4 18.159122 8.46322 18.311748 8.575736 18.424264 
C 8.688252 18.53678 8.840878 18.6 9 18.6 
z
M 15 18.6 
C 15.159122 18.6 15.311748 18.53678 15.424264 18.424264 
C 15.53678 18.311748 15.6 18.159122 15.6 18 
C 15.6 17.840878 15.53678 17.688252 15.424264 17.575736 
C 15.311748 17.46322 15.159122 17.4 15 17.4 
C 14.840878 17.4 14.688252 17.46322 14.575736 17.575736 
C 14.46322 17.688252 14.4 17.840878 14.4 18 
C 14.4 18.159122 14.46322 18.311748 14.575736 18.424264 
C 14.688252 18.53678 14.840878 18.6 15 18.6 
z
M 21 18.6 
C 21.159122 18.6 21.311748 18.53678 21.424264 18.424264 
C 21.53678 18.311748 21.6 18.159122 21.6 18 
C 21.6 17.840878 21.53678 17.688252 21.424264 17.575736 
C 21.311748 17.46322 21.159122 17.4 21 17.4 
C 20.840878 17.4 20.688252 17.46322 20.575736 17.575736 
C 20.46322 17.688252 20.4 17.840878 20.4 18 
C 20.4 18.159122 20.46322 18.311748 20.575736 18.424264 
C 20.688252 18.53678 20.840878 18.6 21 18.6 
z
M 27 18.6 
C 27.159122 18.6 27.311748 18.53678 27.424264 18.424264 
C 27.53678 18.311748 27.6 18.159122 27.6 18 
C 27.6 17.840878 27.53678 17.688252 27.424264 17.575736 
C 27.311748 17.46322 27.159122 17.4 27 17.4 
C 26.840878 17.4 26.688252 17.46322 26.575736 17.575736 
C 26.46322 17.688252 26.4 17.840878 26.4 18 
C 26.4 18.159122 26.46322 18.311748 26.575736 18.424264 
C 26.688252 18.53678 26.840878 18.6 27 18.6 
z
M 33 18.6 
C 33.159122 18.6 33.311748 18.53678 33.424264 18.424264 
C 33.53678 18.311748 33.6 18.159122 33.6 18 
C 33.6 17.840878 33.53678 17.688252 33.424264 17.575736 
C 33.311748 17.46322 33.159122 17.4 33 17.4 
C 32.840878 17.4 32.688252 17.46322 32.575736 17.575736 
C 32.46322 17.688252 32.4 17.840878 32.4 18 
C 32.4 18.159122 32.46322 18.311748 32.575736 18.424264 
C 32.688252 18.53678 32.840878 18.6 33 18.6 
z
M 39 18.6 
C 39.159122 18.6 39.311748 18.53678 39.424264 18.424264 
C 39.53678 18.311748 39.6 18.159122 39.6 18 
C 39.6 17.840878 39.53678 17.688252 39.424264 17.575736 
C 39.311748 17.46322 39.159122 17.4 39 17.4 
C 38.840878 17.4 38.688252 17.46322 38.575736 17.575736 
C 38.46322 17.688252 38.4 17.840878 38.4 18 
C 38.4 18.159122 38.46322 18.311748 38.575736 18.424264 
C 38.688252 18.53678 38.840878 18.6 39 18.6 
z
M 45 18.6 
C 45.159122 18.6 45.311748 18.53678 45.424264 18.424264 
C 45.53678 18.311748 45.6 18.159122 45.6 18 
C 45.6 17.840878 45.53678 17.688252 45.424264 17.575736 
C 45.311748 17.46322 45.159122 17.4 45 17.4 
C 44.840878 17.4 44.688252 17.46322 44.575736 17.575736 
C 44.46322 17.688252 44.4 17.840878 44.4 18 
C 44.4 18.159122 44.46322 18.311748 44.575736 18.424264 
C 44.688252 18.53678 44.840878 18.6 45 18.6 
z
M 51 18.6 
C 51.159122 18.6 51.311748 18.53678 51.424264 18.424264 
C 51.53678 18.311748 51.6 18.159122 51.6 18 
C 51.6 17.840878 51.53678 17.688252 51.424264 17.575736 
C 51.311748 17.46322 51.159122 17.4 51 17.4 
C 50.840878 17.4 50.688252 17.46322 50.575736 17.575736 
C 50.46322 17.688252 50.4 17.840878 50.4 18 
C 50.4 18.159122 50.46322 18.311748 50.575736 18.424264 
C 50.688252 18.53678 50.840878 18.6 51 18.6 
z
M 57 18.6 
C 57.159122 18.6 57.311748 18.53678 57.424264 18.424264 
C 57.53678 18.311748 57.6 18.159122 57.6 18 
C 57.6 17.840878 57.53678 17.688252 57.424264 17.575736 
C 57.311748 17.46322 57.159122 17.4 57 17.4 
C 56.840878 17.4 56.688252 17.46322 56.575736 17.575736 
C 56.46322 17.688252 56.4 17.840878 56.4 18 
C 56.4 18.159122 56.46322 18.311748 56.575736 18.424264 
C 56.688252 18.53678 56.840878 18.6 57 18.6 
z
M 63 18.6 
C 63.159122 18.6 63.311748 18.53678 63.424264 18.424264 
C 63.53678 18.311748 63.6 18.159122 63.6 18 
C 63.6 17.840878 63.53678 17.688252 63.424264 17.575736 
C 63.311748 17.46322 63.159122 17.4 63 17.4 
C 62.840878 17.4 62.688252 17.46322 62.575736 17.575736 
C 62.46322 17.688252 62.4 17.840878 62.4 18 
C 62.4 18.159122 62.46322 18.311748 62.575736 18.424264 
C 62.688252 18.53678 62.840878 18.6 63 18.6 
z
M 69 18.6 
C 69.159122 18.6 69.311748 18.53678 69.424264 18.424264 
C 69.53678 18.311748 69.6 18.159122 69.6 18 
C 69.6 17.840878 69.53678 17.688252 69.424264 17.575736 
C 69.311748 17.46322 69.159122 17.4 69 17.4 
C 68.840878 17.4 68.688252 17.46322 68.575736 17.575736 
C 68.46322 17.688252 68.4 17.840878 68.4 18 
C 68.4 18.159122 68.46322 18.311748 68.575736 18.424264 
C 68.688252 18.53678 68.840878 18.6 69 18.6 
z
M 0 12.6 
C 0.159122 12.6 0.311748 12.53678 0.424264 12.424264 
C 0.53678 12.311748 0.6 12.159122 0.6 12 
C 0.6 11.840878 0.53678 11.688252 0.424264 11.575736 
C 0.311748 11.46322 0.159122 11.4 0 11.4 
C -0.159122 11.4 -0.311748 11.46322 -0.424264 11.575736 
C -0.53678 11.688252 -0.6 11.840878 -0.6 12 
C -0.6 12.159122 -0.53678 12.311748 -0.424264 12.424264 
C -0.311748 12.53678 -0.159122 12.6 0 12.6 
z
M 6 12.6 
C 6.159122 12.6 6.311748 12.53678 6.424264 12.424264 
C 6.53678 12.311748 6.6 12.159122 6.6 12 
C 6.6 11.840878 6.53678 11.688252 6.424264 11.575736 
C 6.311748 11.46322 6.159122 11.4 6 11.4 
C 5.840878 11.4 5.688252 11.46322 5.575736 11.575736 
C 5.46322 11.688252 5.4 11.840878 5.4 12 
C 5.4 12.159122 5.46322 12.311748 5.575736 12.424264 
C 5.688252 12.53678 5.840878 12.6 6 12.6 
z
M 12 12.6 
C 12.159122 12.6 12.311748 12.53678 12.424264 12.424264 
C 12.53678 12.311748 12.6 12.159122 12.6 12 
C 12.6 11.840878 12.53678 11.688252 12.424264 11.575736 
C 12.311748 11.46322 12.159122 11.4 12 11.4 
C 11.840878 11.4 11.688252 11.46322 11.575736 11.575736 
C 11.46322 11.688252 11.4 11.840878 11.4 12 
C 11.4 12.159122 11.46322 12.311748 11.575736 12.424264 
C 11.688252 12.53678 11.840878 12.6 12 12.6 
z
M 18 12.6 
C 18.159122 12.6 18.311748 12.53678 18.424264 12.424264 
C 18.53678 12.311748 18.6 12.159122 18.6 12 
C 18.6 11.840878 18.53678 11.688252 18.424264 11.575736 
C 18.311748 11.46322 18.159122 11.4 18 11.4 
C 17.840878 11.4 17.688252 11.46322 17.575736 11.575736 
C 17.46322 11.688252 17.4 11.840878 17.4 12 
C 17.4 12.159122 17.46322 12.311748 17.575736 12.424264 
C 17.688252 12.53678 17.840878 12.6 18 12.6 
z
M 24 12.6 
C 24.159122 12.6 24.311748 12.53678 24.424264 12.424264 
C 24.53678 12.311748 24.6 12.159122 24.6 12 
C 24.6 11.840878 24.53678 11.688252 24.424264 11.575736 
C 24.311748 11.46322 24.159122 11.4 24 11.4 
C 23.840878 11.4 23.688252 11.46322 23.575736 11.575736 
C 23.46322 11.688252 23.4 11.840878 23.4 12 
C 23.4 12.159122 23.46322 12.311748 23.575736 12.424264 
C 23.688252 12.53678 23.840878 12.6 24 12.6 
z
M 30 12.6 
C 30.159122 12.6 30.311748 12.53678 30.424264 12.424264 
C 30.53678 12.311748 30.6 12.159122 30.6 12 
C 30.6 11.840878 30.53678 11.688252 30.424264 11.575736 
C 30.311748 11.46322 30.159122 11.4 30 11.4 
C 29.840878 11.4 29.688252 11.46322 29.575736 11.575736 
C 29.46322 11.688252 29.4 11.840878 29.4 12 
C 29.4 12.159122 29.46322 12.311748 29.575736 12.424264 
C 29.688252 12.53678 29.840878 12.6 30 12.6 
z
M 36 12.6 
C 36.159122 12.6 36.311748 12.53678 36.424264 12.424264 
C 36.53678 12.311748 36.6 12.159122 36.6 12 
C 36.6 11.840878 36.53678 11.688252 36.424264 11.575736 
C 36.311748 11.46322 36.159122 11.4 36 11.4 
C 35.840878 11.4 35.688252 11.46322 35.575736 11.575736 
C 35.46322 11.688252 35.4 11.840878 35.4 12 
C 35.4 12.159122 35.46322 12.311748 35.575736 12.424264 
C 35.688252 12.53678 35.840878 12.6 36 12.6 
z
M 42 12.6 
C 42.159122 12.6 42.311748 12.53678 42.424264 12.424264 
C 42.53678 12.311748 42.6 12.159122 42.6 12 
C 42.6 11.840878 42.53678 11.688252 42.424264 11.575736 
C 42.311748 11.46322 42.159122 11.4 42 11.4 
C 41.840878 11.4 41.688252 11.46322 41.575736 11.575736 
C 41.46322 11.688252 41.4 11.840878 41.4 12 
C 41.4 12.159122 41.46322 12.311748 41.575736 12.424264 
C 41.688252 12.53678 41.840878 12.6 42 12.6 
z
M 48 12.6 
C 48.159122 12.6 48.311748 12.53678 48.424264 12.424264 
C 48.53678 12.311748 48.6 12.159122 48.6 12 
C 48.6 11.840878 48.53678 11.688252 48.424264 11.575736 
C 48.311748 11.46322 48.159122 11.4 48 11.4 
C 47.840878 11.4 47.688252 11.46322 47.575736 11.575736 
C 47.46322 11.688252 47.4 11.840878 47.4 12 
C 47.4 12.159122 47.46322 12.311748 47.575736 12.424264 
C 47.688252 12.53678 47.840878 12.6 48 12.6 
z
M 54 12.6 
C 54.159122 12.6 54.311748 12.53678 54.424264 12.424264 
C 54.53678 12.311748 54.6 12.159122 54.6 12 
C 54.6 11.840878 54.53678 11.688252 54.424264 11.575736 
C 54.311748 11.46322 54.159122 11.4 54 11.4 
C 53.840878 11.4 53.688252 11.46322 53.575736 11.575736 
C 53.46322 11.688252 53.4 11.840878 53.4 12 
C 53.4 12.159122 53.46322 12.311748 53.575736 12.424264 
C 53.688252 12.53678 53.840878 12.6 54 12.6 
z
M 60 12.6 
C 60.159122 12.6 60.311748 12.53678 60.424264 12.424264 
C 60.53678 12.311748 60.6 12.159122 60.6 12 
C 60.6 11.840878 60.53678 11.688252 60.424264 11.575736 
C 60.311748 11.46322 60.159122 11.4 60 11.4 
C 59.840878 11.4 59.688252 11.46322 59.575736 11.575736 
C 59.46322 11.688252 59.4 11.840878 59.4 12 
C 59.4 12.159122 59.46322 12.311748 59.575736 12.424264 
C 59.688252 12.53678 59.840878 12.6 60 12.6 
z
M 66 12.6 
C 66.159122 12.6 66.311748 12.53678 66.424264 12.424264 
C 66.53678 12.311748 66.6 12.159122 66.6 12 
C 66.6 11.840878 66.53678 11.688252 66.424264 11.575736 
C 66.311748 11.46322 66.159122 11.4 66 11.4 
C 65.840878 11.4 65.688252 11.46322 65.575736 11.575736 
C 65.46322 11.688252 65.4 11.840878 65.4 12 
C 65.4 12.159122 65.46322 12.311748 65.575736 12.424264 
C 65.688252 12.53678 65.840878 12.6 66 12.6 
z
M 72 12.6 
C 72.159122 12.6 72.311748 12.53678 72.424264 12.424264 
C 72.53678 12.311748 72.6 12.159122 72.6 12 
C 72.6 11.840878 72.53678 11.688252 72.424264 11.575736 
C 72.311748 11.46322 72.159122 11.4 72 11.4 
C 71.840878 11.4 71.688252 11.46322 71.575736 11.575736 
C 71.46322 11.688252 71.4 11.840878 71.4 12 
C 71.4 12.159122 71.46322 12.311748 71.575736 12.424264 
C 71.688252 12.53678 71.840878 12.6 72 12.6 
z
M 3 6.6 
C 3.159122 6.6 3.311748 6.53678 3.424264 6.424264 
C 3.53678 6.311748 3.6 6.159122 3.6 6 
C 3.6 5.840878 3.53678 5.688252 3.424264 5.575736 
C 3.311748 5.46322 3.159122 5.4 3 5.4 
C 2.840878 5.4 2.688252 5.46322 2.575736 5.575736 
C 2.46322 5.688252 2.4 5.840878 2.4 6 
C 2.4 6.159122 2.46322 6.311748 2.575736 6.424264 
C 2.688252 6.53678 2.840878 6.6 3 6.6 
z
M 9 6.6 
C 9.159122 6.6 9.311748 6.53678 9.424264 6.424264 
C 9.53678 6.311748 9.6 6.159122 9.6 6 
C 9.6 5.840878 9.53678 5.688252 9.424264 5.575736 
C 9.311748 5.46322 9.159122 5.4 9 5.4 
C 8.840878 5.4 8.688252 5.46322 8.575736 5.575736 
C 8.46322 5.688252 8.4 5.840878 8.4 6 
C 8.4 6.159122 8.46322 6.311748 8.575736 6.424264 
C 8.688252 6.53678 8.840878 6.6 9 6.6 
z
M 15 6.6 
C 15.159122 6.6 15.311748 6.53678 15.424264 6.424264 
C 15.53678 6.311748 15.6 6.159122 15.6 6 
C 15.6 5.840878 15.53678 5.688252 15.424264 5.575736 
C 15.311748 5.46322 15.159122 5.4 15 5.4 
C 14.840878 5.4 14.688252 5.46322 14.575736 5.575736 
C 14.46322 5.688252 14.4 5.840878 14.4 6 
C 14.4 6.159122 14.46322 6.311748 14.575736 6.424264 
C 14.688252 6.53678 14.840878 6.6 15 6.6 
z
M 21 6.6 
C 21.159122 6.6 21.311748 6.53678 21.424264 6.424264 
C 21.53678 6.311748 21.6 6.159122 21.6 6 
C 21.6 5.840878 21.53678 5.688252 21.424264 5.575736 
C 21.311748 5.46322 21.159122 5.4 21 5.4 
C 20.840878 5.4 20.688252 5.46322 20.575736 5.575736 
C 20.46322 5.688252 20.4 5.840878 20.4 6 
C 20.4 6.159122 20.46322 6.311748 20.575736 6.424264 
C 20.688252 6.53678 20.840878 6.6 21 6.6 
z
M 27 6.6 
C 27.159122 6.6 27.311748 6.53678 27.424264 6.424264 
C 27.53678 6.311748 27.6 6.159122 27.6 6 
C 27.6 5.840878 27.53678 5.688252 27.424264 5.575736 
C 27.311748 5.46322 27.159122 5.4 27 5.4 
C 26.840878 5.4 26.688252 5.46322 26.575736 5.575736 
C 26.46322 5.688252 26.4 5.840878 26.4 6 
C 26.4 6.159122 26.46322 6.311748 26.575736 6.424264 
C 26.688252 6.53678 26.840878 6.6 27 6.6 
z
M 33 6.6 
C 33.159122 6.6 33.311748 6.53678 33.424264 6.424264 
C 33.53678 6.311748 33.6 6.159122 33.6 6 
C 33.6 5.840878 33.53678 5.688252 33.424264 5.575736 
C 33.311748 5.46322 33.159122 5.4 33 5.4 
C 32.840878 5.4 32.688252 5.46322 32.575736 5.575736 
C 32.46322 5.688252 32.4 5.840878 32.4 6 
C 32.4 6.159122 32.46322 6.311748 32.575736 6.424264 
C 32.688252 6.53678 32.840878 6.6 33 6.6 
z
M 39 6.6 
C 39.159122 6.6 39.311748 6.53678 39.424264 6.424264 
C 39.53678 6.311748 39.6 6.159122 39.6 6 
C 39.6 5.840878 39.53678 5.688252 39.424264 5.575736 
C 39.311748 5.46322 39.159122 5.4 39 5.4 
C 38.840878 5.4 38.688252 5.46322 38.575736 5.575736 
C 38.46322 5.688252 38.4 5.840878 38.4 6 
C 38.4 6.159122 38.46322 6.311748 38.575736 6.424264 
C 38.688252 6.53678 38.840878 6.6 39 6.6 
z
M 45 6.6 
C 45.159122 6.6 45.311748 6.53678 45.424264 6.424264 
C 45.53678 6.311748 45.6 6.159122 45.6 6 
C 45.6 5.840878 45.53678 5.688252 45.424264 5.575736 
C 45.311748 5.46322 45.159122 5.4 45 5.4 
C 44.840878 5.4 44.688252 5.46322 44.575736 5.575736 
C 44.46322 5.688252 44.4 5.840878 44.4 6 
C 44.4 6.159122 44.46322 6.311748 44.575736 6.424264 
C 44.688252 6.53678 44.840878 6.6 45 6.6 
z
M 51 6.6 
C 51.159122 6.6 51.311748 6.53678 51.424264 6.424264 
C 51.53678 6.311748 51.6 6.159122 51.6 6 
C 51.6 5.840878 51.53678 5.688252 51.424264 5.575736 
C 51.311748 5.46322 51.159122 5.4 51 5.4 
C 50.840878 5.4 50.688252 5.46322 50.575736 5.575736 
C 50.46322 5.688252 50.4 5.840878 50.4 6 
C 50.4 6.159122 50.46322 6.311748 50.575736 6.424264 
C 50.688252 6.53678 50.840878 6.6 51 6.6 
z
M 57 6.6 
C 57.159122 6.6 57.311748 6.53678 57.424264 6.424264 
C 57.53678 6.311748 57.6 6.159122 57.6 6 
C 57.6 5.840878 57.53678 5.688252 57.424264 5.575736 
C 57.311748 5.46322 57.159122 5.4 57 5.4 
C 56.840878 5.4 56.688252 5.46322 56.575736 5.575736 
C 56.46322 5.688252 56.4 5.840878 56.4 6 
C 56.4 6.159122 56.46322 6.311748 56.575736 6.424264 
C 56.688252 6.53678 56.840878 6.6 57 6.6 
z
M 63 6.6 
C 63.159122 6.6 63.311748 6.53678 63.424264 6.424264 
C 63.53678 6.311748 63.6 6.159122 63.6 6 
C 63.6 5.840878 63.53678 5.688252 63.424264 5.575736 
C 63.311748 5.46322 63.159122 5.4 63 5.4 
C 62.840878 5.4 62.688252 5.46322 62.575736 5.575736 
C 62.46322 5.688252 62.4 5.840878 62.4 6 
C 62.4 6.159122 62.46322 6.311748 62.575736 6.424264 
C 62.688252 6.53678 62.840878 6.6 63 6.6 
z
M 69 6.6 
C 69.159122 6.6 69.311748 6.53678 69.424264 6.424264 
C 69.53678 6.311748 69.6 6.159122 69.6 6 
C 69.6 5.840878 69.53678 5.688252 69.424264 5.575736 
C 69.311748 5.46322 69.159122 5.4 69 5.4 
C 68.840878 5.4 68.688252 5.46322 68.575736 5.575736 
C 68.46322 5.688252 68.4 5.840878 68.4 6 
C 68.4 6.159122 68.46322 6.311748 68.575736 6.424264 
C 68.688252 6.53678 68.840878 6.6 69 6.6 
z
M 0 0.6 
C 0.159122 0.6 0.311748 0.53678 0.424264 0.424264 
C 0.53678 0.311748 0.6 0.159122 0.6 0 
C 0.6 -0.159122 0.53678 -0.311748 0.424264 -0.424264 
C 0.311748 -0.53678 0.159122 -0.6 0 -0.6 
C -0.159122 -0.6 -0.311748 -0.53678 -0.424264 -0.424264 
C -0.53678 -0.311748 -0.6 -0.159122 -0.6 0 
C -0.6 0.159122 -0.53678 0.311748 -0.424264 0.424264 
C -0.311748 0.53678 -0.159122 0.6 0 0.6 
z
M 6 0.6 
C 6.159122 0.6 6.311748 0.53678 6.424264 0.424264 
C 6.53678 0.311748 6.6 0.159122 6.6 0 
C 6.6 -0.159122 6.53678 -0.311748 6.424264 -0.424264 
C 6.311748 -0.53678 6.159122 -0.6 6 -0.6 
C 5.840878 -0.6 5.688252 -0.53678 5.575736 -0.424264 
C 5.46322 -0.311748 5.4 -0.159122 5.4 0 
C 5.4 0.159122 5.46322 0.311748 5.575736 0.424264 
C 5.688252 0.53678 5.840878 0.6 6 0.6 
z
M 12 0.6 
C 12.159122 0.6 12.311748 0.53678 12.424264 0.424264 
C 12.53678 0.311748 12.6 0.159122 12.6 0 
C 12.6 -0.159122 12.53678 -0.311748 12.424264 -0.424264 
C 12.311748 -0.53678 12.159122 -0.6 12 -0.6 
C 11.840878 -0.6 11.688252 -0.53678 11.575736 -0.424264 
C 11.46322 -0.311748 11.4 -0.159122 11.4 0 
C 11.4 0.159122 11.46322 0.311748 11.575736 0.424264 
C 11.688252 0.53678 11.840878 0.6 12 0.6 
z
M 18 0.6 
C 18.159122 0.6 18.311748 0.53678 18.424264 0.424264 
C 18.53678 0.311748 18.6 0.159122 18.6 0 
C 18.6 -0.159122 18.53678 -0.311748 18.424264 -0.424264 
C 18.311748 -0.53678 18.159122 -0.6 18 -0.6 
C 17.840878 -0.6 17.688252 -0.53678 17.575736 -0.424264 
C 17.46322 -0.311748 17.4 -0.159122 17.4 0 
C 17.4 0.159122 17.46322 0.311748 17.575736 0.424264 
C 17.688252 0.53678 17.840878 0.6 18 0.6 
z
M 24 0.6 
C 24.159122 0.6 24.311748 0.53678 24.424264 0.424264 
C 24.53678 0.311748 24.6 0.159122 24.6 0 
C 24.6 -0.159122 24.53678 -0.311748 24.424264 -0.424264 
C 24.311748 -0.53678 24.159122 -0.6 24 -0.6 
C 23.840878 -0.6 23.688252 -0.53678 23.575736 -0.424264 
C 23.46322 -0.311748 23.4 -0.159122 23.4 0 
C 23.4 0.159122 23.46322 0.311748 23.575736 0.424264 
C 23.688252 0.53678 23.840878 0.6 24 0.6 
z
M 30 0.6 
C 30.159122 0.6 30.311748 0.53678 30.424264 0.424264 
C 30.53678 0.311748 30.6 0.159122 30.6 0 
C 30.6 -0.159122 30.53678 -0.311748 30.424264 -0.424264 
C 30.311748 -0.53678 30.159122 -0.6 30 -0.6 
C 29.840878 -0.6 29.688252 -0.53678 29.575736 -0.424264 
C 29.46322 -0.311748 29.4 -0.159122 29.4 0 
C 29.4 0.159122 29.46322 0.311748 29.575736 0.424264 
C 29.688252 0.53678 29.840878 0.6 30 0.6 
z
M 36 0.6 
C 36.159122 0.6 36.311748 0.53678 36.424264 0.424264 
C 36.53678 0.311748 36.6 0.159122 36.6 0 
C 36.6 -0.159122 36.53678 -0.311748 36.424264 -0.424264 
C 36.311748 -0.53678 36.159122 -0.6 36 -0.6 
C 35.840878 -0.6 35.688252 -0.53678 35.575736 -0.424264 
C 35.46322 -0.311748 35.4 -0.159122 35.4 0 
C 35.4 0.159122 35.46322 0.311748 35.575736 0.424264 
C 35.688252 0.53678 35.840878 0.6 36 0.6 
z
M 42 0.6 
C 42.159122 0.6 42.311748 0.53678 42.424264 0.424264 
C 42.53678 0.311748 42.6 0.159122 42.6 0 
C 42.6 -0.159122 42.53678 -0.311748 42.424264 -0.424264 
C 42.311748 -0.53678 42.159122 -0.6 42 -0.6 
C 41.840878 -0.6 41.688252 -0.53678 41.575736 -0.424264 
C 41.46322 -0.311748 41.4 -0.159122 41.4 0 
C 41.4 0.159122 41.46322 0.311748 41.575736 0.424264 
C 41.688252 0.53678 41.840878 0.6 42 0.6 
z
M 48 0.6 
C 48.159122 0.6 48.311748 0.53678 48.424264 0.424264 
C 48.53678 0.311748 48.6 0.159122 48.6 0 
C 48.6 -0.159122 48.53678 -0.311748 48.424264 -0.424264 
C 48.311748 -0.53678 48.159122 -0.6 48 -0.6 
C 47.840878 -0.6 47.688252 -0.53678 47.575736 -0.424264 
C 47.46322 -0.311748 47.4 -0.159122 47.4 0 
C 47.4 0.159122 47.46322 0.311748 47.575736 0.424264 
C 47.688252 0.53678 47.840878 0.6 48 0.6 
z
M 54 0.6 
C 54.159122 0.6 54.311748 0.53678 54.424264 0.424264 
C 54.53678 0.311748 54.6 0.159122 54.6 0 
C 54.6 -0.159122 54.53678 -0.311748 54.424264 -0.424264 
C 54.311748 -0.53678 54.159122 -0.6 54 -0.6 
C 53.840878 -0.6 53.688252 -0.53678 53.575736 -0.424264 
C 53.46322 -0.311748 53.4 -0.159122 53.4 0 
C 53.4 0.159122 53.46322 0.311748 53.575736 0.424264 
C 53.688252 0.53678 53.840878 0.6 54 0.6 
z
M 60 0.6 
C 60.159122 0.6 60.311748 0.53678 60.424264 0.424264 
C 60.53678 0.311748 60.6 0.159122 60.6 0 
C 60.6 -0.159122 60.53678 -0.311748 60.424264 -0.424264 
C 60.311748 -0.53678 60.159122 -0.6 60 -0.6 
C 59.840878 -0.6 59.688252 -0.53678 59.575736 -0.424264 
C 59.46322 -0.311748 59.4 -0.159122 59.4 0 
C 59.4 0.159122 59.46322 0.311748 59.575736 0.424264 
C 59.688252 0.53678 59.840878 0.6 60 0.6 
z
M 66 0.6 
C 66.159122 0.6 66.311748 0.53678 66.424264 0.424264 
C 66.53678 0.311748 66.6 0.159122 66.6 0 
C 66.6 -0.159122 66.53678 -0.311748 66.424264 -0.424264 
C 66.311748 -0.53678 66.159122 -0.6 66 -0.6 
C 65.840878 -0.6 65.688252 -0.53678 65.575736 -0.424264 
C 65.46322 -0.311748 65.4 -0.159122 65.4 0 
C 65.4 0.159122 65.46322 0.311748 65.575736 0.424264 
C 65.688252 0.53678 65.840878 0.6 66 0.6 
z
M 72 0.6 
C 72.159122 0.6 72.311748 0.53678 72.424264 0.424264 
C 72.53678 0.311748 72.6 0.159122 72.6 0 
C 72.6 -0.159122 72.53678 -0.311748 72.424264 -0.424264 
C 72.311748 -0.53678 72.159122 -0.6 72 -0.6 
C 71.840878 -0.6 71.688252 -0.53678 71.575736 -0.424264 
C 71.46322 -0.311748 71.4 -0.159122 71.4 0 
C 71.4 0.159122 71.46322 0.311748 71.575736 0.424264 
C 71.688252 0.53678 71.840878 0.6 72 0.6 
z
" style="fill: #ffffff; stroke: #ffffff; stroke-width: 1.0; stroke-linecap: butt; stroke-linejoin: miter; stroke-opacity: 0.88"/>
  </pattern>
 </defs>
</svg>
